<?xml version="1.0" encoding="UTF-8" standalone="no"?>
<svg
   xmlns:dc="http://purl.org/dc/elements/1.1/"
   xmlns:cc="http://creativecommons.org/ns#"
   xmlns:rdf="http://www.w3.org/1999/02/22-rdf-syntax-ns#"
   xmlns:svg="http://www.w3.org/2000/svg"
   xmlns="http://www.w3.org/2000/svg"
   xmlns:sodipodi="http://sodipodi.sourceforge.net/DTD/sodipodi-0.dtd"
   xmlns:inkscape="http://www.inkscape.org/namespaces/inkscape"
   sodipodi:docname="cropIcons.svg"
   inkscape:version="1.0 (4035a4fb49, 2020-05-01)"
   id="svg8"
   version="1.1"
   viewBox="0 0 210 297"
   height="297mm"
   width="210mm">
  <defs
     id="defs2">
    <clipPath
       id="clip0">
      <rect
         width="28"
         height="30.5455"
         fill="white"
         id="rect926" />
    </clipPath>
  </defs>
  <sodipodi:namedview
     inkscape:window-maximized="1"
     inkscape:window-y="-8"
     inkscape:window-x="1912"
     inkscape:window-height="1137"
     inkscape:window-width="1920"
     showgrid="false"
     inkscape:document-rotation="0"
     inkscape:current-layer="layer1"
     inkscape:document-units="mm"
     inkscape:cy="645.11246"
     inkscape:cx="319.10433"
     inkscape:zoom="0.7"
     inkscape:pageshadow="2"
     inkscape:pageopacity="0.0"
     borderopacity="1.0"
     bordercolor="#666666"
     pagecolor="#ffffff"
     id="base" />
  <metadata
     id="metadata5">
    <rdf:RDF>
      <cc:Work
         rdf:about="">
        <dc:format>image/svg+xml</dc:format>
        <dc:type
           rdf:resource="http://purl.org/dc/dcmitype/StillImage" />
        <dc:title />
      </cc:Work>
    </rdf:RDF>
  </metadata>
  <g
     id="layer1"
     inkscape:groupmode="layer"
     inkscape:label="Layer 1">
    <g
       inkscape:export-ydpi="100"
       inkscape:export-xdpi="100"
       transform="matrix(1.7251696,0,0,1.7251696,85.894915,89.152948)"
       id="g898"
       style="fill:none">
      <path
         d="M 17.5989,28.1813 8.84763,26.998 c -0.3747,-0.0511 -0.5676,-0.3737 -0.37299,-0.6244 0.37641,-0.485 0.63417,-1.0191 0.7622,-1.5747 l 1.23846,-5.3852 c 0.1281,-0.5563 0.1229,-1.1251 -0.0136,-1.6795 -0.0709,-0.2866 0.2543,-0.5393 0.629,-0.4889 l 8.7513,1.1834 c 0.3747,0.0504 0.5685,0.373 0.3739,0.6244 -0.3765,0.4849 -0.6342,1.0184 -0.7622,1.574 l -1.2385,5.3852 c -0.1281,0.5557 -0.1229,1.1251 0.0136,1.6794 0.07,0.288 -0.2552,0.5407 -0.6299,0.4896 z"
         fill="#b4de87"
         id="path833" />
      <path
         d="m 13.402,17.5587 -2.3123,-0.3129 c -0.3747,-0.0504 -0.6999,0.2023 -0.629,0.4889 0.1374,0.5544 0.1417,1.1232 0.0136,1.6795 l -1.23843,5.3852 c -0.12803,0.5556 -0.3858,1.089 -0.76221,1.5747 -0.1946,0.2506 -0.00171,0.5733 0.373,0.6244 l 7.14404,0.9653 C 14.1591,24.6482 13.2125,21.6224 13.402,17.5587 Z"
         fill="#92d18a"
         id="path835" />
      <path
         d="m 19.841,18.4292 -8.7513,-1.1833 c -0.3747,-0.0504 -0.5676,-0.373 -0.3739,-0.6244 0.3764,-0.485 0.6342,-1.0184 0.7622,-1.574 L 12.7165,9.66228 C 12.8445,9.10661 12.8403,8.5372 12.7028,7.98285 12.632,7.69618 12.9572,7.44354 13.3328,7.49394 l 8.7512,1.18333 c 0.3747,0.05105 0.5676,0.37371 0.3739,0.62438 -0.3764,0.48499 -0.6342,1.01905 -0.7622,1.57475 l -1.2385,5.3852 c -0.128,0.5563 -0.1238,1.125 0.0137,1.6794 0.0699,0.286 -0.2552,0.5386 -0.6299,0.4882 z"
         fill="#8ec15d"
         id="path837" />
      <path
         d="M 15.7244,7.81724 13.3319,7.49327 c -0.3747,-0.0504 -0.6999,0.20224 -0.629,0.4889 0.1374,0.55436 0.1416,1.12377 0.0136,1.67944 L 11.478,15.0468 c -0.128,0.5563 -0.3858,1.0891 -0.7622,1.5747 -0.1946,0.2507 -0.0017,0.5734 0.3739,0.6244 l 4.5502,0.6152 C 14.5806,15.6025 15.039,10.6126 15.7244,7.81724 Z"
         fill="#57b33b"
         id="path839" />
      <path
         d="M 22.7123,8.18843 C 22.5749,7.63342 22.5706,7.06466 22.6987,6.50899 L 23.1715,4.4506 14.8231,0.502686 13.7212,5.2949 c -0.128,0.55567 -0.3858,1.08908 -0.7622,1.57407 -0.1946,0.25132 -0.0017,0.57399 0.3738,0.62439 l 8.7513,1.18332 C 22.458,8.72773 22.7832,8.4751 22.7123,8.18843 Z"
         fill="#b4de87"
         id="path841" />
      <path
         d="M 17.277,1.66311 14.8231,0.502686 13.7212,5.2949 c -0.128,0.55567 -0.3858,1.08908 -0.7622,1.57472 -0.1946,0.25067 -0.0017,0.57334 0.3738,0.62439 l 3.7377,0.50527 C 15.9481,6.09797 16.613,3.56311 17.277,1.66311 Z"
         fill="#92d18a"
         id="path843" />
      <path
         d="M 14.3111,29.8102 5.55982,30.9935 C 5.18512,31.0439 4.85992,30.7919 4.92991,30.5046 5.06733,29.9502 5.0716,29.3815 4.94357,28.8252 L 3.70509,23.44 C 3.57706,22.8843 3.31929,22.3509 2.94288,21.8653 2.74828,21.6146 2.94118,21.2919 3.31673,21.2409 L 12.068,20.0575 c 0.3747,-0.0504 0.6999,0.2023 0.6291,0.4889 -0.1374,0.5544 -0.1417,1.1238 -0.0137,1.6795 l 1.2385,5.3852 c 0.128,0.5556 0.3858,1.0891 0.7622,1.574 0.1946,0.2514 0.0017,0.574 -0.373,0.6251 z"
         fill="#8ec15d"
         id="path845" />
      <path
         d="m 6.42273,20.8214 -3.10516,0.4195 c -0.3747,0.0511 -0.56845,0.3738 -0.37385,0.6244 0.37641,0.485 0.63418,1.0191 0.76221,1.5747 l 1.23848,5.3852 c 0.12803,0.5564 0.12291,1.1251 -0.01366,1.6795 -0.07084,0.2866 0.25435,0.5393 0.62905,0.4889 L 10.64,30.307 C 7.70388,28.5248 6.58063,23.9028 6.42273,20.8214 Z"
         fill="#57b33b"
         id="path847" />
      <path
         d="M 12.0689,20.0576 3.31763,21.2409 C 2.94293,21.292 2.61773,21.0393 2.68772,20.7527 2.82514,20.1983 2.82941,19.6289 2.70138,19.0732 L 1.4629,13.6881 C 1.33487,13.1324 1.0771,12.599 0.700695,12.114 0.506089,11.8627 0.698988,11.54 1.07454,11.4896 l 8.75129,-1.1833 c 0.37467,-0.0511 0.69987,0.2022 0.62907,0.4882 -0.1374,0.555 -0.1417,1.1238 -0.0137,1.6795 l 1.2385,5.3852 c 0.128,0.5556 0.3858,1.089 0.7622,1.5747 0.1946,0.2506 0.0017,0.5733 -0.373,0.6237 z"
         fill="#b4de87"
         id="path849" />
      <path
         d="M 4.18091,11.0695 1.07575,11.489 c -0.374704,0.0504 -0.567603,0.3731 -0.373851,0.6244 0.376411,0.485 0.634181,1.0184 0.762211,1.574 l 1.23847,5.3852 c 0.12803,0.5557 0.12291,1.1251 -0.01365,1.6795 -0.07085,0.2866 0.25435,0.5393 0.62991,0.4882 L 8.39822,20.5538 C 5.46206,18.7729 4.33881,14.1508 4.18091,11.0695 Z"
         fill="#92d18a"
         id="path851" />
      <path
         d="M 10.1991,9.68128 C 9.82273,9.1963 9.56496,8.66288 9.43693,8.10656 L 8.36233,3.43542 0.013916,7.38465 0.459461,9.3213 C 0.587491,9.87697 0.58237,10.4464 0.445804,11.0007 0.374961,11.2874 0.700158,11.54 1.07486,11.4896 L 9.82615,10.3063 C 10.2,10.2553 10.3937,9.9326 10.1991,9.68128 Z"
         fill="#8ec15d"
         id="path853" />
      <path
         d="M 0.013916,7.38459 0.459461,9.32124 C 0.587491,9.87691 0.58237,10.4463 0.445805,11.0007 0.374961,11.2873 0.700158,11.54 1.07486,11.4896 L 6.15424,10.8024 C 4.55045,9.82913 3.48865,8.00767 2.82887,6.05334 Z"
         fill="#57b33b"
         id="path855" />
      <path
         d="M 23.1717,4.45114 C 22.9813,5.27711 20.9585,5.06244 18.6539,3.9727 16.3485,2.88165 14.6329,1.32854 14.8233,0.502562 c 0.1894,-0.825974 2.2132,-0.6113 4.5177,0.478436 2.3063,1.090392 4.021,2.644162 3.8307,3.470142 z"
         fill="#f8eed1"
         id="path857" />
      <path
         d="M 0.0144244,7.38474 C 0.204763,8.21072 2.22764,7.99604 4.53218,6.90565 6.83758,5.81526 8.55318,4.26214 8.36284,3.43617 8.17251,2.6102 6.14963,2.82487 3.84509,3.91526 1.53969,5.00565 -0.175914,6.55877 0.0144244,7.38474 Z"
         fill="#f8eed1"
         id="path859" />
      <path
         d="M 5.51055,4.0146 C 5.41154,3.8837 5.09318,3.88239 4.79871,4.01329 4.50424,4.14354 4.34548,4.35559 4.44449,4.48649 4.5435,4.61739 4.86187,4.61805 5.15634,4.4878 5.45081,4.35756 5.60956,4.14616 5.51055,4.0146 Z"
         fill="#edd8a4"
         id="path861" />
      <path
         d="M 2.51202,6.37202 C 2.41301,6.24112 2.09464,6.24047 1.80017,6.37071 1.5057,6.50096 1.34695,6.71301 1.44596,6.84391 1.54497,6.97481 1.86333,6.97612 2.1578,6.84522 2.45227,6.71498 2.61103,6.50358 2.51202,6.37202 Z"
         fill="#edd8a4"
         id="path863" />
      <path
         d="M 16.6161,0.601453 C 16.5171,0.732352 16.6759,0.944409 16.9712,1.07465 17.2657,1.2049 17.584,1.20424 17.683,1.07334 17.782,0.942446 17.6233,0.730389 17.328,0.600144 17.0343,0.4699 16.7151,0.470554 16.6161,0.601453 Z"
         fill="#edd8a4"
         id="path865" />
      <path
         d="m 21.2394,3.56559 c -0.099,0.1309 0.0598,0.34295 0.3542,0.4732 0.2945,0.13024 0.6137,0.12959 0.7119,-0.00131 C 22.4036,3.90658 22.2457,3.69387 21.9513,3.56363 21.6568,3.43338 21.3376,3.43404 21.2394,3.56559 Z"
         fill="#edd8a4"
         id="path867" />
      <path
         d="m 18.0976,2.65266 c -0.099,0.1309 0.0597,0.34361 0.3542,0.47386 0.2945,0.13024 0.6137,0.12959 0.7118,-0.00131 C 19.2626,2.99431 19.1039,2.7816 18.8094,2.65135 18.5149,2.52111 18.1966,2.52176 18.0976,2.65266 Z"
         fill="#edd8a4"
         id="path869" />
    </g>
    <g
       transform="matrix(1.4778305,0,0,1.4778305,155.12282,93.323048)"
       id="g952"
       style="fill:none"
       inkscape:export-filename="C:\AgroX\agro-x\frontend\assets\cropIcons\corn.png"
       inkscape:export-xdpi="100"
       inkscape:export-ydpi="100">
      <g
         clip-path="url(#clip0)"
         id="g924">
        <path
           d="M 8.95703,12.6452 C 9.42603,5.72728 11.7174,0.477112 14.4736,0.477112 c 2.2826,0 4.2461,3.601508 5.1205,8.768178 V 19.0275 H 9.1087 Z"
           fill="#ffce34"
           id="path900" />
        <path
           d="m 14.4668,30.0623 c 3.2667,0 4.8691,-3.7453 6.5362,-9.518 l 1.9991,-6.8272 c 0.3115,-1.0629 4.5314,-7.51379 4.5314,-7.51379 l -7.4667,2.86308 c -1.8667,0.95431 -3.2667,2.38591 -5.6,7.63491 z"
           fill="#a9ba45"
           id="path902" />
        <path
           opacity="0.3"
           d="m 14.4668,16.7012 v 13.361 c 0.7006,0.0072 1.3895,-0.1867 1.988,-0.5601 1.3621,-3.3635 -0.0257,-9.6879 -0.3547,-11.3694 -0.2776,-1.419 0.1307,-3.9939 0.4212,-5.4988 -0.6166,1.0205 -1.2851,2.3357 -2.0545,4.0673 z"
           fill="#576021"
           id="path904" />
        <path
           d="m 8.34413,20.5443 c 1.00858,10.0762 4.25597,9.5179 6.12267,9.5179 1.9168,0 1.5569,-5.6009 0.5349,-11.5286 -1.4682,-8.5129 -14.534903,-6.127 -14.534903,-6.127 0,0 7.354083,2.915 7.877333,8.1377 z"
           fill="#a9ba45"
           id="path906" />
        <rect
           x="10.1819"
           y="11.0303"
           width="1.69697"
           height="0.84848499"
           fill="#d5a81b"
           id="rect908" />
        <rect
           x="14.4243"
           y="9.3333101"
           width="1.69697"
           height="0.84848499"
           fill="#d5a81b"
           id="rect910" />
        <rect
           x="13.5757"
           y="12.7273"
           width="1.69697"
           height="0.84848499"
           fill="#d5a81b"
           id="rect912" />
        <rect
           x="16.9697"
           y="6.7879"
           width="1.69697"
           height="0.84848499"
           fill="#d5a81b"
           id="rect914" />
        <rect
           x="11.8789"
           y="6.7879"
           width="1.69697"
           height="0.84848499"
           fill="#d5a81b"
           id="rect916" />
        <rect
           x="11.0303"
           y="4.2424302"
           width="1.69697"
           height="0.84848499"
           fill="#d5a81b"
           id="rect918" />
        <rect
           y="0"
           x="0"
           width="1.69697"
           height="0.84848499"
           transform="matrix(1,0,0,-1,13.5757,2.54547)"
           fill="#d5a81b"
           id="rect920" />
        <rect
           y="0"
           x="0"
           width="1.69697"
           height="0.84848499"
           transform="matrix(1,0,0,-1,15.2727,5.09088)"
           fill="#d5a81b"
           id="rect922" />
      </g>
    </g>
    <g
       inkscape:export-ydpi="100"
       inkscape:export-xdpi="100"
       transform="matrix(1.3749932,0,0,1.3748366,15.351422,95.270148)"
       id="g983"
       style="fill:none">
      <path
         d="m 24.793,14.5448 c -1.3623,0.5046 -2.456,1.6112 -2.9987,3.0375 -0.7384,1.9378 -2.2739,3.4726 -4.2103,4.211 -1.4263,0.5434 -2.5343,1.6364 -3.0382,2.9986 -1.0779,2.908 -3.8748,4.8546 -6.97433,4.7517 C 5.94327,29.5095 2.81711,28.5556 1.77597,28.2242 1.44529,27.1831 0.490735,24.0569 0.456644,22.4274 0.392552,19.3346 2.30166,16.5323 5.20827,15.4557 6.57055,14.9512 7.6642,13.8446 8.20693,12.4182 8.94534,10.4805 10.4808,8.94569 12.4172,8.20728 13.8436,7.66386 14.9515,6.5709 15.4554,5.20862 16.5327,2.30133 19.3609,0.363586 22.4291,0.456314 24.0573,0.490405 27.1902,1.432 28.2389,1.76064 c 0.3279,1.04865 1.2716,4.1823 1.3057,5.81186 0.0634,3.0934 -1.8457,5.8957 -4.7516,6.9723 z"
         fill="#b7d01e"
         id="path954" />
      <path
         d="m 22.1437,11.4047 c 1.8661,0 3.3788,-1.51278 3.3788,-3.37885 0,-1.86607 -1.5127,-3.37882 -3.3788,-3.37882 -1.8661,0 -3.3788,1.51275 -3.3788,3.37882 0,1.86607 1.5127,3.37885 3.3788,3.37885 z"
         fill="#ffce34"
         id="path956" />
      <path
         opacity="0.1"
         d="m 22.1436,9.71476 c -1.5694,0 -2.8807,-1.08087 -3.2584,-2.53391 -0.0705,0.2716 -0.1196,0.55112 -0.1196,0.8449 0,1.86322 1.5164,3.37885 3.3788,3.37885 1.8625,0 3.3781,-1.51563 3.3781,-3.37885 0,-0.29299 -0.0491,-0.5733 -0.1196,-0.8449 -0.3785,1.45304 -1.6906,2.53391 -3.2593,2.53391 z"
         fill="#000000"
         id="path958" />
      <path
         d="m 14.6142,18.9341 c 1.866,0 3.3788,-1.5128 3.3788,-3.3788 0,-1.8661 -1.5128,-3.3788 -3.3788,-3.3788 -1.8661,0 -3.3788,1.5127 -3.3788,3.3788 0,1.866 1.5127,3.3788 3.3788,3.3788 z"
         fill="#ffce34"
         id="path960" />
      <path
         opacity="0.1"
         d="m 14.6141,17.2442 c -1.5694,0 -2.8807,-1.0809 -3.2584,-2.5339 -0.0705,0.2716 -0.1196,0.5511 -0.1196,0.8449 0,1.8632 1.5164,3.3788 3.3788,3.3788 1.8624,0 3.378,-1.5156 3.378,-3.3788 0,-0.293 -0.0491,-0.5733 -0.1195,-0.8449 -0.3786,1.453 -1.6906,2.5339 -3.2593,2.5339 z"
         fill="#000000"
         id="path962" />
      <path
         d="m 7.08486,26.4635 c 1.86607,0 3.37884,-1.5128 3.37884,-3.3788 0,-1.8661 -1.51277,-3.3788 -3.37884,-3.3788 -1.86606,0 -3.37881,1.5127 -3.37881,3.3788 0,1.866 1.51275,3.3788 3.37881,3.3788 z"
         fill="#ffce34"
         id="path964" />
      <path
         opacity="0.1"
         d="m 7.08481,24.7736 c -1.56944,0 -2.88074,-1.0809 -3.25846,-2.5339 -0.07047,0.2716 -0.11956,0.5511 -0.11956,0.8449 0,1.8632 1.51639,3.3788 3.37881,3.3788 1.86243,0 3.378,-1.5156 3.378,-3.3788 0,-0.293 -0.0491,-0.5733 -0.1195,-0.8449 -0.37854,1.453 -1.69064,2.5339 -3.25929,2.5339 z"
         fill="#000000"
         id="path966" />
    </g>
    <g
       inkscape:export-ydpi="100"
       inkscape:export-xdpi="100"
       inkscape:export-filename="C:\AgroX\agro-x\frontend\assets\cropIcons\corn.png"
       transform="matrix(1.4839896,0,0,1.4839896,155.3238,157.7648)"
       id="g902"
       style="fill:none">
      <path
         d="m 1.27916,12.7849 c 0.06646,0.0258 6.65202,2.6345 7.10912,7.0991 0.407,3.9762 1.23413,6.5697 2.52872,7.9288 1.044,1.096 2.1829,1.1972 3.0836,1.1972 0.1059,0 0.2086,-0.0014 0.3074,-0.0028 0.0883,-0.0012 0.174,-0.0023 0.2567,-0.0023 1.5989,0 2.9065,-0.8452 3.9975,-2.5839 0.6016,-0.9586 1.3749,-2.4754 2.5507,-6.4559 l 1.8745,-6.2607 C 23.1864,13.04 25.6649,9.19742 27.1805,6.93177 27.232,6.85478 27.2578,6.76344 27.254,6.67091 27.2503,6.57837 27.2173,6.4894 27.1598,6.41681 27.1023,6.34421 27.0232,6.29174 26.934,6.26694 26.8447,6.24214 26.7499,6.24629 26.6632,6.2788 L 19.7088,8.88663 C 18.771,4.00696 16.8234,1 14.5711,1 13.129,1 11.819,2.19491 10.7829,4.45548 9.88134,6.42243 9.25506,9.09514 9.00362,12.0289 7.94148,11.8037 6.76329,11.6807 5.46905,11.6599 4.09385,11.6357 2.71917,11.7315 1.36061,11.9462 1.26665,11.9629 1.18076,12.01 1.11603,12.0801 c -0.06474,0.0702 -0.10476,0.1595 -0.11398,0.2545 -0.009223,0.095 0.01287,0.1905 0.06291,0.2717 0.05004,0.0813 0.12528,0.144 0.21426,0.1785 z M 25.7057,7.57227 C 24.5183,9.37601 22.3792,12.6846 22.149,13.4532 l -1.8749,6.2623 c -1.2812,4.3375 -2.4728,7.188 -4.3257,8.0989 0.4731,-1.33 0.454,-3.8175 -0.057,-7.4284 0.0287,-1.4431 1.8387,-4.5118 2.5399,-5.5812 l -0.7318,-0.48 c -0.0274,0.0414 -0.6718,1.0269 -1.327,2.2605 -0.3308,0.6228 -0.6013,1.1902 -0.8115,1.7022 -0.0209,-0.1217 -0.0422,-0.2441 -0.064,-0.3678 -0.0934,-0.5419 -0.249,-1.0712 -0.4635,-1.5774 2.0705,-4.5235 3.303,-5.7943 4.9576,-6.62684 z M 9.93265,11.5018 h 2.00665 v -0.8751 h -1.902 c 0.06,-0.4474 0.129,-0.88497 0.207,-1.31277 h 1.695 V 8.43878 h -1.5197 c 0.1339,-0.61294 0.2864,-1.19863 0.4565,-1.7503 h 1.5008 V 5.81333 h -1.2061 c 0.1284,-0.3489 0.2642,-0.67996 0.4076,-0.99319 0.0502,-0.10939 0.101,-0.21591 0.1525,-0.31954 h 1.9587 V 3.62545 h -1.4678 c 0.7267,-1.13769 1.5389,-1.7503 2.3493,-1.7503 0.8236,0 1.6342,0.6323 2.3486,1.7503 H 15.4399 V 4.5006 h 1.9704 c 0.2098,0.4273 0.3966,0.8655 0.5597,1.31273 h -1.2174 v 0.87515 h 1.5127 c 0.1689,0.54697 0.3227,1.13189 0.4578,1.7503 h -1.5329 v 0.87515 h 1.7083 c 7e-4,0.00361 0.0014,0.00716 0.002,0.01094 -1.1629,0.73143 -2.1824,1.83523 -3.4605,4.21063 v -0.721 h -1.7504 v 0.8752 h 1.6679 c -0.2672,0.5035 -0.5458,1.0626 -0.8394,1.685 -0.4687,-0.7151 -1.072,-1.3322 -1.7764,-1.8169 -0.807,-0.5638 -1.7686,-1.0033 -2.87748,-1.3171 0.02017,-0.2483 0.04298,-0.4946 0.06843,-0.7389 z m -4.45971,1.0334 c 1.9984,0.0329 4.79506,0.361 6.76916,1.7412 1.3047,0.9119 2.1098,2.1889 2.393,3.7953 0.9305,5.2773 1.028,8.9738 0.2609,9.888 -0.1,0.1191 -0.199,0.17 -0.3312,0.17 -0.0866,0 -0.1763,0.0012 -0.2687,0.0024 H 14.29 c -1.8864,-1.6587 -1.9131,-5.6503 -1.9131,-5.6909 h -0.4376 -0.4376 c 0,0.1625 0.0205,3.5154 1.5476,5.614 -0.5015,-0.103 -1.0112,-0.3343 -1.4987,-0.846 C 10.411,26.0128 9.63985,23.5183 9.25878,19.7949 9.04514,17.7074 7.64156,15.6881 5.19984,13.9553 4.5012,13.4624 3.76955,13.0181 3.01005,12.6254 3.82893,12.5533 4.65097,12.5232 5.47294,12.5352 Z"
         fill="#000000"
         stroke="#000000"
         stroke-width="0.7"
         id="path882" />
      <path
         d="m 13.2517,10.627 h 2.6255 v 0.8751 h -2.6255 z"
         fill="#000000"
         id="path884" />
      <path
         d="m 13.2517,8.43848 h 2.6255 v 0.87515 h -2.6255 z"
         fill="#000000"
         id="path886" />
      <path
         d="m 13.2517,5.81348 h 2.6255 v 0.87515 h -2.6255 z"
         fill="#000000"
         id="path888" />
    </g>
    <g
       inkscape:export-ydpi="100"
       inkscape:export-xdpi="100"
       inkscape:export-filename="C:\AgroX\agro-x\frontend\assets\cropIcons\sugar-cane.png"
       transform="matrix(1.5862056,0,0,1.5862056,87.161257,159.73201)"
       id="g927"
       style="fill:none">
      <path
         d="m 24.9481,1.00147 c 0.0182,0.03866 0.0618,0.09152 0.0498,0.11256 -0.0302,0.05482 -0.0844,0.09593 -0.1295,0.14194 -2.4488,2.49897 -4.8967,4.99892 -7.349,7.49447 -0.1228,0.1248 -0.1803,0.24519 -0.1755,0.42432 0.0124,0.45418 0.0043,0.90934 0.0043,1.38754 -0.2428,0 -0.4629,0 -0.7124,0 0,0.9861 0,1.9493 0,2.9282 -0.2557,0 -0.4821,0 -0.7296,0 0,-0.9632 0,-1.9205 0,-2.8984 -1.9231,0 -3.8251,0 -5.7454,0 0,2.1867 0,4.3784 0,6.5832 1.9107,0 3.8074,0 5.7272,0 0,-0.9666 0,-1.9313 0,-2.916 0.2489,0 0.4753,0 0.7286,0 0,0.9588 0,1.9225 0,2.9219 0.2504,0 0.4759,0 0.7157,0 0,0.7571 0,1.478 0,2.2234 -0.2264,0 -0.4466,0 -0.6955,0 0,2.2078 0,4.392 0,6.593 -0.8553,0 -1.6814,0 -2.528,0 0,-0.2262 0,-0.4562 0,-0.7126 0.5886,0 1.1747,0 1.7753,0 0,-1.9597 0,-3.8939 0,-5.8491 -1.9001,0 -3.8021,0 -5.7228,0 0,1.9322 0,3.8723 0,5.8368 0.5833,0 1.1623,0 1.7605,0 0,0.254 0,0.4836 0,0.7273 -0.8308,0 -1.6583,0 -2.51362,0 0,-2.1862 0,-4.372 0,-6.5851 -0.24657,0 -0.46579,0 -0.71715,0 0,-0.4894 -0.01008,-0.9515 0.00432,-1.413 C 8.70206,17.789 8.63634,17.6397 8.48907,17.49 6.05843,15.0179 3.63307,12.541 1.20483,10.067 1.13815,9.99894 1.05469,9.94755 1,9.85016 2.39928,9.8345 3.78178,9.69893 5.17531,9.99111 5.11583,10.2432 5.06306,10.4683 5.01845,10.6587 4.26868,10.6161 3.53665,10.5745 2.80511,10.5329 2.7912,10.5652 2.77729,10.5975 2.76338,10.6298 c 0.13191,0.1238 0.26815,0.2437 0.39527,0.3729 1.96485,2.0023 3.92874,4.0059 5.89263,6.0091 0.01679,0.0172 0.03118,0.0402 0.05181,0.0504 0.08059,0.0407 0.1631,0.0769 0.24513,0.115 C 9.37556,17.0985 9.42257,17.0211 9.42641,16.9409 9.4691,16.103 9.35829,15.2847 9.07287,14.4977 8.46269,12.8136 7.35458,11.613 5.68235,10.9308 5.7615,10.7101 5.83921,10.4937 5.92988,10.2407 c 1.50625,0.5844 2.6182,1.6078 3.45144,3.0594 0,-0.9417 0,-1.8197 0,-2.7266 -0.21635,0 -0.43557,0 -0.68693,0 0,-0.2775 0,-0.5266 0,-0.7762 0,-0.42335 0.00383,-0.84669 -0.00144,-1.27004 C 8.69103,8.3912 8.73708,8.3359 8.87331,8.34275 9.03881,8.35107 9.20479,8.34471 9.38803,8.34471 9.39379,8.22871 9.40194,8.14209 9.40194,8.05497 9.40338,5.80805 9.40386,3.56064 9.40626,1.31372 9.40626,1.20898 9.42305,1.10474 9.43217,1 11.8268,1 14.221,1 16.6157,1 c 0,1.17167 0,2.34285 0,3.53214 C 16.6694,4.51109 16.68,4.51011 16.6833,4.50473 16.7217,4.44404 16.7601,4.38286 16.796,4.32071 17.801,2.57642 19.278,1.52759 21.2357,1.19283 21.689,1.1155 22.1466,1.06362 22.6023,1 c 0.7815,0.00147 1.5638,0.00147 2.3458,0.00147 z M 10.156,1.76056 c 0,2.20287 0,4.37981 0,6.57093 1.914,0 3.8151,0 5.7253,0 0,-2.19455 0,-4.37687 0,-6.57093 -1.9136,0 -3.8084,0 -5.7253,0 z m 6.4928,6.64288 c 0.1511,-0.08027 0.2911,-0.11697 0.3789,-0.20654 2.0416,-2.07366 4.078,-4.15272 6.1143,-6.23177 0.046,-0.04698 0.0839,-0.10228 0.1357,-0.16689 -4.535,-0.43803 -6.9829,3.423 -6.6289,6.6052 z M 9.43552,9.80318 c 2.40758,0 4.78648,0 7.16388,0 0,-0.24422 0,-0.46691 0,-0.68323 -2.3981,0 -4.7778,0 -7.16388,0 0,0.23541 0,0.4532 0,0.68323 z m 7.17298,8.15662 c -2.4024,0 -4.7817,0 -7.16578,0 0,0.2379 0,0.4606 0,0.6891 2.39608,0 4.77588,0 7.16578,0 0,-0.2344 0,-0.4522 0,-0.6891 z"
         fill="#000000"
         stroke="#000000"
         stroke-width="0.9"
         id="path904-3" />
      <path
         d="m 13.39,27.0003 c -0.25,0 -0.4895,0 -0.7494,0 0,-0.2547 0,-0.5026 0,-0.7679 0.2417,0 0.4786,0 0.7494,0 0,0.2405 0,0.4915 0,0.7679 z"
         fill="#000000"
         id="path906-8" />
      <path
         d="m 11,12.2747 c 0,-0.2642 0,-0.5121 0,-0.7747 0.2578,0 0.501,0 0.7582,0 0,0.2648 0,0.5126 0,0.7747 -0.2515,0 -0.4885,0 -0.7582,0 z"
         fill="#000000"
         id="path908" />
      <path
         d="M 11,3.75887 C 11,3.50573 11,3.26317 11,3 c 0.2432,0 0.488,0 0.753,0 0,0.24626 0,0.49411 0,0.75887 -0.2489,0 -0.4937,0 -0.753,0 z"
         fill="#000000"
         id="path910" />
      <path
         d="m 11.0027,4.5791 c 0.251,0 0.489,0 0.7483,0 0,0.25049 0,0.49939 0,0.76679 -0.2442,0 -0.4885,0 -0.7483,0 0,-0.25524 0,-0.50415 0,-0.76679 z"
         fill="#000000"
         id="path912" />
    </g>
    <g
       inkscape:export-ydpi="100"
       inkscape:export-xdpi="100"
       inkscape:export-filename="C:\AgroX\agro-x\frontend\assets\cropIcons\soy.png"
       transform="matrix(1.5564168,0,0,1.5564168,16.969986,161.29555)"
       id="g949"
       style="fill:none">
      <path
         d="m 13.4999,10.0908 c -1.8799,0 -3.4091,1.5292 -3.4091,3.4091 0,1.8799 1.5292,3.4091 3.4091,3.4091 1.8799,0 3.4091,-1.5292 3.4091,-3.4091 0,-1.8799 -1.5292,-3.4091 -3.4091,-3.4091 z m 0,5.6818 c -1.2529,0 -2.2727,-1.0193 -2.2727,-2.2727 0,-1.2535 1.0198,-2.2727 2.2727,-2.2727 1.2529,0 2.2728,1.0192 2.2728,2.2727 0,1.2535 -1.0199,2.2727 -2.2728,2.2727 z"
         fill="#000000"
         stroke="#000000"
         stroke-width="0.7"
         id="path929" />
      <path
         d="m 7.81828,15.7725 c -1.87991,0 -3.4091,1.5292 -3.4091,3.4091 0,1.8799 1.52919,3.4091 3.4091,3.4091 1.8799,0 3.40912,-1.5292 3.40912,-3.4091 0,-1.8799 -1.52922,-3.4091 -3.40912,-3.4091 z m 0,5.6818 c -1.2529,0 -2.27275,-1.0193 -2.27275,-2.2727 0,-1.2535 1.01985,-2.2728 2.27275,-2.2728 1.25289,0 2.27272,1.0193 2.27272,2.2728 0,1.2534 -1.01983,2.2727 -2.27272,2.2727 z"
         fill="#000000"
         stroke="#000000"
         stroke-width="0.7"
         id="path931" />
      <path
         d="M 25.9986,7.67435 C 25.9631,5.97039 24.88,2.66734 24.8334,2.52757 24.7768,2.35669 24.6426,2.2224 24.4716,2.16583 24.3318,2.11976 21.0316,1.03838 19.3282,1.00232 16.4296,0.926201 13.7996,2.73004 12.7898,5.45545 12.5091,6.2128 11.8854,6.82314 11.0776,7.13113 9.26212,7.8236 7.82284,9.26229 7.13149,11.0778 6.82297,11.8856 6.21263,12.5099 5.45475,12.7906 2.73152,13.7993 0.941534,16.426 1.00146,19.3262 c 0.03553,1.7051 1.13081,4.997 1.17742,5.1363 0.05657,0.1692 0.18973,0.3019 0.35955,0.3584 0.13871,0.0466 3.42896,1.1414 5.13346,1.1775 C 7.72073,25.9995 7.76846,26 7.81725,26 c 2.84195,0 5.39975,-1.7755 6.39295,-4.4549 0.2808,-0.7573 0.9044,-1.3677 1.7123,-1.6757 1.8154,-0.6924 3.2547,-2.1311 3.9461,-3.9466 0.3085,-0.8079 0.9188,-1.4321 1.6767,-1.7128 2.7233,-1.0088 4.5132,-3.6355 4.4533,-6.53565 z m -4.8484,5.46995 c -1.0643,0.394 -1.9188,1.259 -2.3427,2.3732 -0.577,1.5136 -1.7766,2.7127 -3.2892,3.2897 -1.1142,0.4245 -1.9798,1.2784 -2.3738,2.3427 -0.8422,2.2716 -3.0273,3.7925 -5.44875,3.712 C 6.424,24.8353 3.98149,24.0901 3.16805,23.831 2.90949,23.0176 2.16375,20.5751 2.13711,19.3022 2.08715,16.8857 3.57868,14.6968 5.84919,13.8556 6.91341,13.4617 7.76793,12.5967 8.19183,11.4825 8.76887,9.96878 9.9685,8.76973 11.4811,8.19269 12.5953,7.7682 13.4608,6.91428 13.8548,5.85006 c 0.8423,-2.2711 3.0517,-3.78479 5.4488,-3.71209 1.2717,0.02664 3.7198,0.76236 4.5387,1.01927 0.2564,0.81898 0.9933,3.26762 1.0199,4.54049 0.05,2.41637 -1.4415,4.60537 -3.712,5.44657 z"
         fill="#000000"
         stroke="#000000"
         stroke-width="0.7"
         id="path933" />
      <path
         d="m 19.1823,4.4043 c -1.8799,0 -3.4091,1.52919 -3.4091,3.40909 0,1.87991 1.5292,3.40911 3.4091,3.40911 1.8799,0 3.4091,-1.5292 3.4091,-3.40911 0,-1.8799 -1.5293,-3.40909 -3.4091,-3.40909 z m 0,5.6818 c -1.2529,0 -2.2728,-1.01923 -2.2728,-2.27271 0,-1.25348 1.0199,-2.27275 2.2728,-2.27275 1.2529,0 2.2727,1.01927 2.2727,2.27275 0,1.25348 -1.0198,2.27271 -2.2727,2.27271 z"
         fill="#000000"
         stroke="#000000"
         stroke-width="0.7"
         id="path935" />
    </g>
  </g>
</svg>
