<?xml version="1.0" encoding="UTF-8" standalone="no"?>
<svg
   xmlns:dc="http://purl.org/dc/elements/1.1/"
   xmlns:cc="http://creativecommons.org/ns#"
   xmlns:rdf="http://www.w3.org/1999/02/22-rdf-syntax-ns#"
   xmlns:svg="http://www.w3.org/2000/svg"
   xmlns="http://www.w3.org/2000/svg"
   xmlns:xlink="http://www.w3.org/1999/xlink"
   xmlns:sodipodi="http://sodipodi.sourceforge.net/DTD/sodipodi-0.dtd"
   xmlns:inkscape="http://www.inkscape.org/namespaces/inkscape"
   sodipodi:docname="icon.svg"
   inkscape:version="1.0 (4035a4fb49, 2020-05-01)"
   id="svg57"
   version="1.1"
   viewBox="0 0 210 297"
   height="297mm"
   width="210mm">
  <defs
     id="defs51">
    <linearGradient
       gradientTransform="matrix(16.253968,0,0,17.655174,-407,-340.02083)"
       id="paint0_linear"
       x1="16.065"
       y1="1.972"
       x2="50.4748"
       y2="40.663"
       gradientUnits="userSpaceOnUse">
      <stop
         stop-color="#327387"
         id="stop67" />
      <stop
         offset="1"
         stop-color="#469BA2"
         id="stop69" />
    </linearGradient>
    <linearGradient
       gradientUnits="userSpaceOnUse"
       y2="40.662998"
       x2="50.4748"
       y1="1.972"
       x1="16.065001"
       id="paint0_linear-8"
       gradientTransform="matrix(16.253968,0,0,17.655174,-1824.8279,-370.88168)">
      <stop
         id="stop67-9"
         stop-color="#327387" />
      <stop
         id="stop69-7"
         stop-color="#469BA2"
         offset="1" />
    </linearGradient>
    <linearGradient
       y2="40.662998"
       x2="50.4748"
       y1="1.972"
       x1="16.065001"
       gradientTransform="matrix(16.253968,0,0,17.655174,-3236.1458,-332.34368)"
       gradientUnits="userSpaceOnUse"
       id="linearGradient78"
       xlink:href="#paint0_linear-8"
       inkscape:collect="always" />
    <linearGradient
       y2="40.662998"
       x2="50.4748"
       y1="1.972"
       x1="16.065001"
       gradientTransform="matrix(16.253968,0,0,17.655174,-1824.8279,-370.88168)"
       gradientUnits="userSpaceOnUse"
       id="linearGradient80"
       xlink:href="#paint0_linear-8"
       inkscape:collect="always" />
  </defs>
  <sodipodi:namedview
     inkscape:window-maximized="1"
     inkscape:window-y="-8"
     inkscape:window-x="1912"
     inkscape:window-height="1137"
     inkscape:window-width="1920"
     showgrid="false"
     inkscape:document-rotation="0"
     inkscape:current-layer="layer1"
     inkscape:document-units="mm"
     inkscape:cy="218.34925"
     inkscape:cx="-8082.253"
     inkscape:zoom="0.04"
     inkscape:pageshadow="2"
     inkscape:pageopacity="0.0"
     borderopacity="1.0"
     bordercolor="#666666"
     pagecolor="#ffffff"
     id="base" />
  <metadata
     id="metadata54">
    <rdf:RDF>
      <cc:Work
         rdf:about="">
        <dc:format>image/svg+xml</dc:format>
        <dc:type
           rdf:resource="http://purl.org/dc/dcmitype/StillImage" />
        <dc:title />
      </cc:Work>
    </rdf:RDF>
  </metadata>
  <g
     id="layer1"
     inkscape:groupmode="layer"
     inkscape:label="Layer 1">
    <g
       transform="translate(4.8446655e-5,7.67713)"
       id="g86">
      <path
         style="fill:url(#paint0_linear);stroke-width:16.94"
         d="M 421.95238,-340.02083 H -211.95238 C -319.67395,-340.02083 -407,-245.167 -407,-128.15874 v 600.27582 c 0,117.00794 87.32605,211.86209 195.04762,211.86209 H 421.95238 C 529.67396,683.97917 617,589.12502 617,472.11708 V -128.15874 C 617,-245.167 529.67396,-340.02083 421.95238,-340.02083 Z"
         fill="url(#paint0_linear)"
         id="path59" />
      <g
         id="g108"
         transform="translate(-69.891265,-3.170796)">
        <path
           style="stroke-width:16.2539"
           id="path63"
           fill="#7dae84"
           d="M 234.59918,170.59292 124.07076,-62.651474 c -12.41793,-1.345368 -29.088202,-2.574015 -50.013279,-3.692083 -20.923848,-1.118068 -37.979304,-1.658672 -51.167594,-1.627956 -20.1645455,0 -39.73934,0.307161 -58.72377,1.00749 -18.985045,0.669612 -38.561068,2.131701 -58.727456,4.373981 L 42.671094,167.97283 -125.86479,417.27563 c 39.027336,4.00539 78.233444,6.02651 117.4659669,6.04494 13.1766185,0 30.2339171,-0.55289 51.1688231,-1.62795 20.934906,-1.08736 37.605181,-2.5433 50.012053,-4.37398 L 234.4026,177.80016 c 0.24573,-2.39586 0.30716,-4.81015 0.18429,-7.21707 z" />
        <path
           style="stroke-width:16.2539"
           id="path65"
           fill="#99d19d"
           d="m 115.08567,179.79425 110.52658,233.24501 c 12.40687,1.34537 29.07837,2.57401 50.01389,3.69208 20.93491,1.11193 37.99036,1.65868 51.1676,1.62182 20.1756,0 39.75224,-0.30717 58.72561,-1.00749 18.9746,-0.66962 38.54939,-2.13171 58.725,-4.37399 L 307.01253,182.40881 475.64732,-66.975695 c -39.02734,-4.005388 -78.23345,-6.026511 -117.4672,-6.044941 -13.17723,0 -30.23269,0.552891 -51.16759,1.621814 -20.93552,1.081208 -37.60518,2.543298 -50.0139,4.373981 L 178.86594,65.119767 115.37809,172.49364 c -0.30716,2.42043 -0.3686,4.85929 -0.30716,7.29754 z" />
      </g>
    </g>
    <g
       transform="translate(3.2549693,38.537995)"
       id="g83"
       inkscape:export-filename="C:\Users\hjusti\Pictures\embraer_icon.png"
       inkscape:export-xdpi="96"
       inkscape:export-ydpi="96">
      <path
         id="path59-0"
         fill="url(#paint0_linear)"
         d="m -995.87552,-370.88169 h -633.90478 c -107.7216,0 -195.0476,94.85383 -195.0476,211.86209 v 600.2758 c 0,117.008 87.326,211.8621 195.0476,211.8621 h 633.90478 c 107.7216,0 195.0476,-94.8541 195.0476,-211.8621 v -600.2758 c 0,-117.00826 -87.326,-211.86209 -195.0476,-211.86209 z"
         style="fill:url(#linearGradient80);stroke-width:16.94" />
      <g
         transform="matrix(18.126573,0,0,18.126573,-1744.9824,-240.77143)"
         id="g45"
         style="fill:#ffffff">
        <path
           style="fill:#ffffff"
           d="M 3.50225,19.3761 0,22.7598 H 8.71392 L 34.8974,42.1359 h 8.7139 L 26.1835,22.7598 H 43.5696 V 19.3761 H 26.1835 L 43.653,0 H 34.8974 L 8.71392,19.3761 Z"
           fill="#ffffff"
           id="path34" />
      </g>
    </g>
    <g
       inkscape:export-ydpi="96"
       inkscape:export-xdpi="96"
       inkscape:export-filename="C:\AgroX\agro-x\frontend\assets\icon.png"
       id="g147">
      <path
         style="fill:url(#linearGradient78);stroke-width:16.94"
         d="m -2407.1934,-332.3437 h -633.9048 c -107.7216,0 -195.0476,94.85384 -195.0476,211.86209 v 600.2758 c 0,117.00801 87.326,211.86211 195.0476,211.86211 h 633.9048 c 107.7216,0 195.0476,-94.8541 195.0476,-211.8621 v -600.2758 c 0,-117.00826 -87.326,-211.86209 -195.0476,-211.8621 z"
         fill="url(#paint0_linear)"
         id="path59-0-0" />
      <g
         style="fill:none"
         id="g129"
         transform="matrix(19.5,0,0,19.5,-3114.1458,-210.3437)">
        <path
           id="path88"
           fill="#ffffff"
           d="m 8.8939,17.4326 c 1.2969,-0.6584 2.6794,-1.3694 4.1606,-2.0935 -1.9289,-0.8164 -5.47068,-2.0935 -10.56613,-3.0481 -0.44108,1.0073 -0.79658,2.054 -1.06649,3.1402 3.64713,0.8756 6.14219,1.8104 7.09019,2.1923 0.13166,-0.0593 0.25016,-0.1251 0.38183,-0.1909 z" />
        <path
           id="path90"
           fill="#ffffff"
           d="M 18.3281,12.8904 C 15.6158,11.7581 10.8034,9.97403 4.63485,8.58496 4.17402,9.20379 3.75927,9.84895 3.37744,10.5204 c 6.63596,1.2904 10.59906,3.1074 11.87626,3.7591 0.9809,-0.4608 2.0079,-0.9217 3.0744,-1.3891 z" />
        <path
           id="path92"
           fill="#ffffff"
           d="M 37.1494,11.2641 C 36.7676,10.5136 36.3331,9.79599 35.8591,9.11133 30.0263,10.4412 25.0888,12.1265 20.8492,13.871 l -0.0658,0.1251 c -0.0066,-0.0066 -0.0461,-0.0197 -0.112,-0.0526 -4.2923,1.7709 -7.8604,3.5944 -10.9282,5.1612 -2.79131,1.4286 -5.20737,2.6597 -7.28769,3.3773 -0.44766,0.1514 -0.90191,0.2962 -1.36274,0.4345 0.11192,0.7439 0.2765,1.4746 0.46742,2.1856 C 3.93017,24.4899 6.14873,23.7196 7.92622,22.7387 17.8341,17.2483 27.6036,13.4234 37.1494,11.2641 Z" />
        <path
           id="path94"
           fill="#ffffff"
           d="m 15.0627,38.5326 c 6.9783,-3.318 13.8842,-5.8065 20.6715,-7.4523 0.7505,-1.0599 1.3957,-2.1988 1.9224,-3.4035 -8.4332,1.8959 -17.0573,5.1283 -25.8065,9.6708 1.027,0.4872 2.1001,0.8887 3.2126,1.185 z" />
        <path
           id="path96"
           fill="#ffffff"
           d="m 20.0136,39.1961 c 5.3325,0.0131 10.1646,-2.1528 13.6537,-5.6551 -5.0757,1.3825 -10.2106,3.239 -15.3983,5.5695 0.5728,0.0526 1.1587,0.0856 1.7446,0.0856 z" />
        <path
           id="path98"
           fill="#ffffff"
           d="M 34.6019,7.47197 C 31.093,3.4035 25.9119,0.822859 20.1187,0.809692 14.5229,0.789942 9.48666,3.17309 5.97119,6.97822 13.3313,8.72279 18.6835,10.9677 20.7243,11.8893 24.7006,10.283 29.276,8.73596 34.6019,7.47197 Z" />
        <path
           id="path100"
           fill="#ffffff"
           d="M 6.22793,18.7818 C 5.01002,18.3604 3.25229,17.8206 1.06664,17.2939 c -0.125083,0.869 -0.190916,1.7578 -0.197499,2.6597 0,0.079 0.006583,0.158 0.006583,0.2436 C 1.46164,20.3618 1.88297,20.5 2.15288,20.5988 3.3642,20.1511 4.72694,19.5257 6.22793,18.7818 Z" />
        <path
           id="path102"
           fill="#ffffff"
           d="m 7.70264,34.6808 c 0.69124,0.5793 1.4154,1.1125 2.18565,1.5931 C 19.5657,31.1258 29.1049,27.5577 38.4334,25.5958 38.7362,24.5952 38.96,23.5616 39.0983,22.4951 29.23,24.5425 19.1049,28.4201 8.80863,34.1146 8.45313,34.3121 8.08447,34.4964 7.70264,34.6808 Z" />
        <path
           id="path104"
           fill="#ffffff"
           d="m 4.4043,31.0924 c 0.55299,0.7769 1.15865,1.5142 1.81698,2.1989 0.5925,-0.2568 1.15208,-0.5267 1.67215,-0.8098 10.64517,-5.8854 21.12577,-9.8683 31.34297,-11.9223 0.0066,-0.1712 0.0132,-0.3358 0.0132,-0.5069 0,-0.8229 -0.0527,-1.6327 -0.1514,-2.4293 C 29.2298,19.6704 19.1048,23.548 8.80851,29.2425 7.51819,29.9601 6.0172,30.5724 4.4043,31.0924 Z" />
        <path
           id="path106"
           fill="#ffffff"
           d="m 8.82851,24.3644 c -1.8894,1.0534 -4.21988,1.8697 -6.68203,2.5149 0.34233,0.8953 0.7505,1.7511 1.21791,2.574 C 5.04313,28.9398 6.59678,28.3276 7.91344,27.5968 18.394,21.8035 28.7166,17.8536 38.789,15.7733 38.5718,14.8187 38.2887,13.8904 37.9398,12.9951 28.4467,15.1083 18.71,18.9003 8.82851,24.3644 Z" />
        <path
           id="path108"
           fill="#ffffff"
           d="M 20,40 C 8.97301,40 0,31.0336 0,20 0,8.97301 8.97301,0 20,0 31.027,0 40,8.97301 40,20 40,31.0336 31.0336,40 20,40 Z M 20,1.6129 C 9.86175,1.6129 1.6129,9.86175 1.6129,20 1.6129,30.1383 9.86175,38.3871 20,38.3871 30.1383,38.3871 38.3871,30.1383 38.3871,20 38.3871,9.86175 30.1383,1.6129 20,1.6129 Z" />
      </g>
    </g>
  </g>
</svg>
