<?xml version="1.0" encoding="UTF-8" standalone="no"?>
<svg
   xmlns:dc="http://purl.org/dc/elements/1.1/"
   xmlns:cc="http://creativecommons.org/ns#"
   xmlns:rdf="http://www.w3.org/1999/02/22-rdf-syntax-ns#"
   xmlns:svg="http://www.w3.org/2000/svg"
   xmlns="http://www.w3.org/2000/svg"
   xmlns:sodipodi="http://sodipodi.sourceforge.net/DTD/sodipodi-0.dtd"
   xmlns:inkscape="http://www.inkscape.org/namespaces/inkscape"
   width="210mm"
   height="297mm"
   viewBox="0 0 210 297"
   version="1.1"
   id="svg8"
   inkscape:version="1.0 (4035a4fb49, 2020-05-01)"
   sodipodi:docname="logo.svg"
   inkscape:export-filename="C:\Users\hjusti\Pictures\logo.png"
   inkscape:export-xdpi="25.4"
   inkscape:export-ydpi="25.4">
  <defs
     id="defs2" />
  <sodipodi:namedview
     id="base"
     pagecolor="#ffffff"
     bordercolor="#666666"
     borderopacity="1.0"
     inkscape:pageopacity="0.0"
     inkscape:pageshadow="2"
     inkscape:zoom="0.175"
     inkscape:cx="-43.993298"
     inkscape:cy="350.60433"
     inkscape:document-units="mm"
     inkscape:current-layer="layer1"
     inkscape:document-rotation="0"
     showgrid="false"
     inkscape:window-width="1920"
     inkscape:window-height="1137"
     inkscape:window-x="1912"
     inkscape:window-y="-8"
     inkscape:window-maximized="1" />
  <metadata
     id="metadata5">
    <rdf:RDF>
      <cc:Work
         rdf:about="">
        <dc:format>image/svg+xml</dc:format>
        <dc:type
           rdf:resource="http://purl.org/dc/dcmitype/StillImage" />
        <dc:title />
      </cc:Work>
    </rdf:RDF>
  </metadata>
  <g
     inkscape:label="Layer 1"
     inkscape:groupmode="layer"
     id="layer1">
    <g
       style="fill:none"
       id="g859"
       transform="matrix(5.2264626,0,0,5.2173686,-417.97422,-342.56108)"
       inkscape:export-filename="C:\Users\hjusti\Pictures\logo.png"
       inkscape:export-xdpi="25.4"
       inkscape:export-ydpi="25.4">
      <path
         id="path833"
         fill="#78849e"
         d="M 0.00697205,27.8014 C -0.0628002,26.027 0.392374,24.2715 1.31551,22.7547 2.16917,21.4437 3.32249,20.3546 4.6802,19.5774 6.09113,18.7736 7.62829,18.2153 9.22615,17.9262 10.8282,17.6202 12.4552,17.4638 14.0861,17.459 h 3.8004 C 17.8709,16.7875 17.6538,16.1362 17.2634,15.5895 16.8896,15.0916 16.3969,14.6954 15.8304,14.437 15.2168,14.1584 14.5662,13.9699 13.8987,13.8775 13.1765,13.7727 12.4477,13.7206 11.718,13.7215 10.5475,13.7384 9.38033,13.853 8.22885,14.0642 6.82979,14.3111 5.45411,14.6759 4.11651,15.1546 3.7435,14.4487 3.42156,13.8048 3.15067,13.2229 2.88421,12.6532 2.67545,12.0584 2.52752,11.4472 2.37982,10.8321 2.27583,10.2074 2.2163,9.57774 2.15382,8.93431 2.12258,8.19691 2.12258,7.36559 4.06454,6.71463 6.05389,6.21471 8.07288,5.87032 9.83182,5.55755 11.6136,5.39076 13.4,5.37166 c 1.9796,-0.02425 3.9523,0.23819 5.8566,0.77911 1.6425,0.46448 3.1632,1.28331 4.4551,2.39886 1.2623,1.13471 2.2343,2.55547 2.8345,4.14307 0.7061,1.9248 1.0442,3.9651 0.9966,6.0147 v 18.2537 c -1.5787,0.4579 -3.4903,0.9148 -5.7348,1.3708 -2.3387,0.4662 -4.7183,0.6958 -7.1029,0.6854 C 12.7064,39.0335 10.7118,38.8352 8.75548,38.4256 7.10108,38.0945 5.52542,37.4494 4.11371,36.5254 2.82499,35.6528 1.78393,34.4616 1.0917,33.0677 0.320496,31.4222 -0.0511668,29.6177 0.00697205,27.8014 Z M 14.7107,31.2906 c 0.542,-0.0118 1.083,-0.0533 1.6204,-0.1245 0.5236,-0.0525 1.0437,-0.1356 1.5575,-0.249 v -6.8539 h -3.5514 c -1.2892,-0.043 -2.564,0.2813 -3.6759,0.9351 -0.4629,0.2597 -0.84658,0.6403 -1.10995,1.1011 -0.26337,0.4608 -0.39656,0.9846 -0.38534,1.5153 -0.04018,0.6985 0.157,1.3901 0.5595,1.9624 0.36839,0.474 0.84919,0.8488 1.39879,1.0903 0.5748,0.2535 1.1837,0.4215 1.8072,0.4987 0.5897,0.0803 1.184,0.1223 1.7792,0.1259 z" />
      <path
         id="path835"
         fill="#78849e"
         d="m 49.2294,39.0803 c -2.6081,0.0698 -5.2037,-0.3857 -7.6323,-1.3393 -1.9715,-0.8025 -3.7309,-2.0501 -5.1404,-3.6452 -1.35,-1.5735 -2.339,-3.4235 -2.8975,-5.4201 -0.6151,-2.1682 -0.9193,-4.4128 -0.9036,-6.6665 -0.0132,-2.2066 0.3557,-4.3989 1.0903,-6.4797 0.6905,-1.9758 1.795,-3.7813 3.2396,-5.2957 1.5066,-1.54472 3.3217,-2.7548 5.3271,-3.55142 2.3413,-0.91332 4.8392,-1.35793 7.3519,-1.30856 1.6113,0.01621 3.2175,0.18317 4.7977,0.49867 1.9627,0.398 3.883,0.98206 5.7349,1.74426 -0.037,0.66958 -0.1202,1.33582 -0.249,1.99393 -0.1245,0.62292 -0.2802,1.25632 -0.4672,1.90022 -0.1869,0.6439 -0.4154,1.3293 -0.6854,2.0561 -0.2709,0.7274 -0.5928,1.5478 -0.9658,2.4611 -1.2702,-0.5348 -2.5832,-0.962 -3.9249,-1.277 -1.0208,-0.2467 -2.0651,-0.3824 -3.115,-0.4049 -1.1934,-0.0326 -2.3809,0.1794 -3.4892,0.6231 -0.8928,0.368 -1.6842,0.9448 -2.308,1.682 -0.5908,0.7235 -1.0256,1.5615 -1.277,2.4611 -0.2714,0.9418 -0.4077,1.9174 -0.405,2.8975 0,2.783 0.6024,4.8287 1.8072,6.137 1.2048,1.3083 2.97,1.9625 5.2957,1.9625 h 1.119 v -9.1618 c 1.0379,-0.2075 1.962,-0.353 2.7723,-0.4364 0.7763,-0.0811 1.5562,-0.1227 2.3366,-0.1245 1.7372,0.0291 3.4681,0.2164 5.1712,0.5594 v 15.8256 c -1.653,0.5922 -3.3379,1.0914 -5.0467,1.4952 -2.4699,0.5753 -5.0006,0.8485 -7.5365,0.8134 z" />
      <path
         id="path837"
         fill="#78849e"
         d="m 67.6077,6.24518 c 1.9522,-0.24898 3.9772,-0.45669 6.0748,-0.62314 2.0977,-0.16645 4.0811,-0.24946 5.9503,-0.24899 5.0257,0 8.7951,0.94484 11.3082,2.83456 1.2302,0.91484 2.2172,2.11749 2.8744,3.50259 0.6573,1.385 0.9647,2.9101 0.8953,4.4416 0.0198,1.1369 -0.1272,2.2706 -0.4364,3.3648 -0.2501,0.8609 -0.6057,1.6875 -1.0589,2.4611 -0.3552,0.61 -0.7958,1.166 -1.3085,1.6512 -0.4574,0.4159 -0.8304,0.7481 -1.119,0.9966 l 7.1029,13.5826 c -0.9163,0.1772 -1.8419,0.3021 -2.7724,0.3742 -1.0183,0.083 -2.0049,0.1244 -2.9597,0.1244 -1.1657,0 -2.2872,-0.0414 -3.3647,-0.1244 -0.9012,-0.0581 -1.7968,-0.1832 -2.6794,-0.3742 l -6.9161,-14.7037 0.8721,-0.498 c 1.2094,-0.6086 2.24,-1.521 2.9906,-2.6478 0.5349,-0.917 0.8145,-1.9604 0.8098,-3.022 0.038,-0.9762 -0.3103,-1.928 -0.9693,-2.6493 -0.4156,-0.3744 -0.9041,-0.659 -1.4348,-0.8359 -0.5307,-0.1769 -1.0923,-0.2423 -1.6494,-0.1921 -0.605,-0.014 -1.2099,0.0277 -1.8072,0.1245 v 24.4858 c -0.9674,0.1921 -1.9452,0.3273 -2.9283,0.405 -0.8724,0.062 -1.6417,0.0932 -2.308,0.0937 -0.7068,0 -1.4761,-0.0313 -2.3079,-0.0937 -0.9627,-0.0807 -1.9201,-0.2159 -2.8675,-0.405 z" />
      <path
         id="path839"
         fill="#78849e"
         d="m 99.0098,22.3821 c -0.0267,-2.3554 0.3204,-4.7001 1.0282,-6.9469 0.625,-1.992 1.666,-3.8289 3.053,-5.3894 1.386,-1.52038 3.102,-2.70322 5.016,-3.4577 4.489,-1.62007 9.404,-1.62007 13.893,0 1.914,0.75463 3.63,1.93744 5.016,3.4577 1.387,1.5607 2.428,3.3975 3.053,5.3894 0.708,2.2467 1.055,4.5915 1.028,6.9469 0.028,2.3147 -0.32,4.6186 -1.028,6.8225 -0.631,1.9616 -1.671,3.7667 -3.053,5.2957 -1.389,1.5016 -3.105,2.6634 -5.016,3.3954 -2.23,0.8302 -4.598,1.2316 -6.977,1.1833 -2.36,0.0451 -4.706,-0.3564 -6.916,-1.1833 -1.911,-0.7319 -3.627,-1.8937 -5.016,-3.3954 -1.382,-1.5288 -2.422,-3.334 -3.053,-5.2957 -0.7081,-2.2039 -1.0553,-4.5078 -1.0282,-6.8225 z m 21.4332,0 c 0,-2.6576 -0.447,-4.693 -1.339,-6.1062 -0.427,-0.6874 -1.032,-1.2469 -1.75,-1.6197 -0.718,-0.3728 -1.523,-0.5451 -2.331,-0.4987 -0.804,-0.0489 -1.606,0.1226 -2.32,0.4959 -0.714,0.3733 -1.312,0.9342 -1.73,1.6225 -0.873,1.4122 -1.309,3.4477 -1.309,6.1062 0,2.6166 0.436,4.6311 1.309,6.0433 0.418,0.6884 1.016,1.2496 1.73,1.6229 0.714,0.3733 1.516,0.5446 2.32,0.4956 0.808,0.0465 1.613,-0.1256 2.331,-0.4985 0.718,-0.3728 1.323,-0.9324 1.75,-1.62 0.892,-1.4113 1.338,-3.4257 1.339,-6.0433 z" />
      <path
         id="path841"
         fill="#7dae84"
         d="M 169.003,22.5745 158.762,0.954719 c -1.151,-0.124489 -2.696,-0.238756 -4.635,-0.34273 -1.94,-0.103974 -3.521,-0.155934 -4.744,-0.155934 -1.87,0 -3.684,0.031219 -5.443,0.093697 -1.76,0.062477 -3.574,0.197486 -5.444,0.404967 l 12.72,21.370781 -15.631,23.1152 c 3.617,0.3711 7.251,0.5579 10.888,0.5595 1.221,0 2.802,-0.052 4.743,-0.156 1.941,-0.1039 3.486,-0.239 4.635,-0.4049 l 13.127,-22.201 c 0.024,-0.2204 0.033,-0.4422 0.025,-0.6638 z" />
      <path
         id="path843"
         fill="#99d19d"
         d="m 157.915,23.4256 10.241,21.6199 c 1.151,0.1245 2.696,0.2387 4.636,0.3427 1.94,0.1039 3.521,0.156 4.743,0.156 1.87,0 3.684,-0.0313 5.444,-0.0938 1.76,-0.0625 3.574,-0.1974 5.444,-0.4049 L 175.703,23.6746 191.334,0.559536 C 187.716,0.188486 184.082,0.00170964 180.446,0 c -1.221,0 -2.802,0.0520027 -4.743,0.155977 -1.941,0.103974 -3.486,0.238939 -4.636,0.404925 l -7.242,12.247498 -5.884,9.9521 c -0.025,0.2208 -0.033,0.4431 -0.026,0.6651 z" />
    </g>
    <rect
       y="9.0631409"
       x="-517.37115"
       height="283.76324"
       width="1198.7938"
       id="rect265"
       style="fill:#327387;fill-opacity:1;stroke:#bdbdbd;stroke-width:1.20613;stroke-linecap:square;stroke-linejoin:round;stroke-opacity:0.686275" />
    <g
       inkscape:export-ydpi="200"
       inkscape:export-xdpi="200"
       inkscape:export-filename="C:\AgroX\agro-x\frontend\assets\logo.png"
       transform="matrix(3.2349896,0,0,3.2349896,-417.97422,52.665778)"
       id="g263"
       style="fill:none">
      <path
         d="m 95.5402,41.8198 c 0,0.2 -0.04,0.4 -0.11,0.58 -0.07,0.19 -0.19,0.33 -0.36,0.44 -0.13,0.13 -0.29,0.22 -0.47,0.25 -0.18,0.04 -0.33,0.05 -0.47,0.05 h -3.53 c -0.25,0 -0.45,-0.03 -0.61,-0.1 -0.16,-0.07 -0.28,-0.16 -0.38,-0.28 -0.1,-0.12 -0.18,-0.27 -0.24,-0.44 -0.06,-0.17 -0.13,-0.36 -0.2,-0.56 l -0.23,-0.81 c -0.32,0.32 -0.69,0.64 -1.1,0.95 -0.41,0.31 -0.87,0.59 -1.36,0.83 -0.5,0.24 -1.03,0.44 -1.59,0.59 -0.57,0.15 -1.15,0.22 -1.77,0.22 -1.09,0 -2.13,-0.14 -3.12,-0.41 -1,-0.27 -1.93,-0.67 -2.8,-1.17 -0.87,-0.51 -1.65,-1.12 -2.35,-1.83 -0.71,-0.71 -1.31,-1.5 -1.82,-2.37 -0.51,-0.87 -0.9,-1.81 -1.17,-2.82 -0.27,-1.01 -0.41,-2.06 -0.41,-3.16 0,-1.66 0.3,-3.2 0.91,-4.63 0.61,-1.43 1.44,-2.67 2.49,-3.73 1.05,-1.06 2.29,-1.89 3.71,-2.49 1.42,-0.6 2.94,-0.9 4.57,-0.9 0.74,0 1.43,0.08 2.07,0.25 0.64,0.17 1.22,0.39 1.76,0.68 0.53,0.29 1.01,0.63 1.44,1.03 0.43,0.4 0.81,0.83 1.13,1.3 l 0.52,-1.63 c 0.12,-0.3 0.22,-0.54 0.3,-0.73 0.08,-0.18 0.16,-0.32 0.25,-0.41 0.09,-0.09 0.2,-0.15 0.33,-0.18 0.13,-0.03 0.32,-0.04 0.55,-0.04 h 2.67 c 0.13,0 0.29,0.02 0.47,0.05 0.18,0.04 0.33,0.12 0.47,0.25 0.17,0.13 0.29,0.28 0.36,0.45 0.07,0.17 0.11,0.36 0.11,0.57 v 20.2 z m -17.65,-10.04 c 0,0.79 0.12,1.53 0.37,2.21 0.24,0.69 0.59,1.28 1.05,1.78 0.45,0.5 1,0.9 1.64,1.19 0.64,0.29 1.35,0.44 2.12,0.44 0.8,0 1.54,-0.15 2.23,-0.44 0.69,-0.29 1.28,-0.69 1.79,-1.19 0.51,-0.5 0.9,-1.1 1.19,-1.78 0.29,-0.69 0.43,-1.42 0.43,-2.21 0,-0.76 -0.14,-1.49 -0.43,-2.19 -0.29,-0.69 -0.68,-1.3 -1.19,-1.83 -0.51,-0.52 -1.11,-0.94 -1.79,-1.24 -0.69,-0.3 -1.43,-0.46 -2.23,-0.46 -0.78,0 -1.49,0.15 -2.12,0.46 -0.64,0.3 -1.18,0.72 -1.64,1.24 -0.45,0.53 -0.8,1.13 -1.05,1.83 -0.24,0.7 -0.37,1.43 -0.37,2.19 z"
         fill="#ffffff"
         id="path189" />
      <path
         d="m 114.17,42.35 c 0.08,-0.24 0.14,-0.5 0.16,-0.79 0.02,-0.29 0.03,-0.59 0.03,-0.9 0,-0.11 0,-0.19 0,-0.24 0,-0.05 0,-0.1 -0.01,-0.13 -0.01,-0.04 -0.01,-0.08 -0.01,-0.13 0,-0.05 0,-0.13 0,-0.24 -0.35,0.37 -0.7,0.73 -1.06,1.09 -0.36,0.36 -0.76,0.68 -1.19,0.96 -0.44,0.28 -0.93,0.51 -1.48,0.68 -0.55,0.17 -1.19,0.26 -1.92,0.26 -1.61,0 -3.11,-0.27 -4.48,-0.82 -1.37,-0.55 -2.56,-1.32 -3.57,-2.3 -0.9998,-0.99 -1.7798,-2.17 -2.3498,-3.54 -0.57,-1.37 -0.84,-2.88 -0.84,-4.53 0,-1.64 0.28,-3.17 0.84,-4.6 0.56,-1.43 1.34,-2.67 2.3498,-3.73 1,-1.06 2.19,-1.89 3.57,-2.49 1.37,-0.6 2.87,-0.9 4.48,-0.9 0.74,0 1.42,0.08 2.02,0.25 0.61,0.17 1.17,0.4 1.68,0.69 0.51,0.29 0.97,0.64 1.39,1.03 0.42,0.39 0.81,0.81 1.17,1.25 l 0.5,-1.59 c 0.07,-0.2 0.14,-0.39 0.2,-0.56 0.06,-0.17 0.14,-0.31 0.23,-0.42 0.1,-0.11 0.22,-0.2 0.37,-0.26 0.15,-0.06 0.34,-0.09 0.58,-0.09 h 2.67 c 0.17,0 0.33,0.03 0.5,0.09 0.17,0.06 0.32,0.14 0.46,0.25 0.14,0.11 0.25,0.24 0.33,0.41 0.08,0.17 0.13,0.36 0.13,0.57 v 18.24 c 0,1.86 -0.3,3.52 -0.91,4.98 -0.61,1.46 -1.44,2.69 -2.5,3.69 -1.06,1 -2.31,1.77 -3.75,2.29 -1.45,0.53 -3,0.79 -4.66,0.79 -0.64,0 -1.34,-0.06 -2.08,-0.17 -0.74,-0.11 -1.48,-0.28 -2.21,-0.51 -0.73,-0.23 -1.45,-0.52 -2.13,-0.87 -0.69,-0.35 -1.29,-0.76 -1.82,-1.23 -0.18,-0.13 -0.33,-0.3 -0.46,-0.49 -0.13,-0.2 -0.19,-0.41 -0.19,-0.65 0,-0.3 0.11,-0.61 0.34,-0.95 l 1.7,-2.35 c 0.17,-0.18 0.32,-0.31 0.47,-0.4 0.14,-0.09 0.3,-0.13 0.47,-0.13 0.26,0 0.59,0.14 0.99,0.43 0.3,0.29 0.64,0.52 1.03,0.69 0.39,0.17 0.79,0.31 1.2,0.41 0.41,0.1 0.82,0.17 1.22,0.2 0.4,0.03 0.76,0.04 1.08,0.04 0.54,0 1.1,-0.07 1.68,-0.22 0.58,-0.14 1.13,-0.36 1.64,-0.64 0.51,-0.28 0.96,-0.62 1.34,-1.03 0.39,-0.4 0.66,-0.86 0.8,-1.39 z M 103.93,31.71 c 0,0.8 0.12,1.54 0.37,2.23 0.24,0.69 0.59,1.28 1.05,1.78 0.45,0.5 1,0.9 1.64,1.18 0.64,0.28 1.35,0.43 2.12,0.43 0.76,0 1.49,-0.13 2.16,-0.4 0.68,-0.27 1.26,-0.64 1.77,-1.12 0.5,-0.48 0.9,-1.04 1.21,-1.68 0.3,-0.65 0.48,-1.34 0.51,-2.1 v -0.59 c -0.03,-0.73 -0.21,-1.42 -0.51,-2.07 -0.3,-0.65 -0.71,-1.22 -1.21,-1.72 -0.5,-0.5 -1.09,-0.89 -1.77,-1.18 -0.67,-0.29 -1.39,-0.44 -2.16,-0.44 -0.78,0 -1.48,0.15 -2.12,0.46 -0.64,0.31 -1.19,0.71 -1.64,1.23 -0.45,0.51 -0.8,1.12 -1.05,1.81 -0.25,0.69 -0.37,1.42 -0.37,2.18 z"
         fill="#ffffff"
         id="path191" />
      <path
         d="m 123.08,21.7098 c 0,-0.23 0.04,-0.42 0.12,-0.59 0.08,-0.17 0.19,-0.3 0.33,-0.41 0.14,-0.11 0.29,-0.19 0.47,-0.24 0.17,-0.05 0.34,-0.08 0.51,-0.08 h 2.7 c 0.3,0 0.54,0.09 0.72,0.27 0.18,0.18 0.33,0.41 0.46,0.68 0.12,0.27 0.23,0.58 0.33,0.91 0.1,0.34 0.21,0.66 0.34,0.97 0.36,-0.39 0.71,-0.78 1.07,-1.16 0.36,-0.38 0.73,-0.72 1.14,-1.02 0.41,-0.3 0.85,-0.54 1.33,-0.73 0.48,-0.18 1.04,-0.28 1.66,-0.28 0.65,0 1.22,0.05 1.73,0.14 0.51,0.1 0.99,0.24 1.44,0.42 0.45,0.19 0.9,0.42 1.35,0.71 0.45,0.29 0.93,0.62 1.46,1 0.51,0.3 0.77,0.65 0.77,1.06 0,0.26 -0.1,0.57 -0.3,0.91 l -1.63,2.78 c -0.32,0.47 -0.72,0.7 -1.2,0.7 -0.24,0 -0.51,-0.07 -0.81,-0.2 -0.51,-0.5 -1.04,-0.87 -1.57,-1.12 -0.53,-0.24 -1.14,-0.37 -1.82,-0.37 -0.47,0 -0.88,0.07 -1.23,0.2 -0.35,0.13 -0.67,0.32 -0.96,0.56 -0.29,0.24 -0.55,0.53 -0.8,0.86 -0.25,0.33 -0.5,0.71 -0.75,1.11 v 12.97 c 0,0.45 -0.11,0.8 -0.33,1.03 -0.22,0.23 -0.59,0.35 -1.1,0.35 h -4.03 c -0.93,0 -1.4,-0.46 -1.4,-1.38 z"
         fill="#ffffff"
         id="path193" />
      <path
         d="m 140.31,31.78 c 0,-1.1 0.14,-2.16 0.42,-3.17 0.28,-1.02 0.67,-1.96 1.18,-2.82 0.51,-0.87 1.12,-1.65 1.83,-2.36 0.71,-0.71 1.5,-1.32 2.37,-1.82 0.87,-0.5 1.81,-0.89 2.82,-1.16 1.01,-0.27 2.06,-0.41 3.16,-0.41 1.62,0 3.15,0.3 4.58,0.9 1.43,0.6 2.67,1.43 3.73,2.49 1.06,1.06 1.89,2.3 2.51,3.73 0.61,1.43 0.92,2.97 0.92,4.63 0,1.1 -0.14,2.15 -0.42,3.16 -0.28,1.01 -0.68,1.95 -1.18,2.82 -0.51,0.87 -1.12,1.66 -1.83,2.37 -0.71,0.71 -1.5,1.32 -2.37,1.83 -0.87,0.51 -1.81,0.9 -2.8,1.17 -1,0.27 -2.04,0.41 -3.13,0.41 -1.1,0 -2.15,-0.14 -3.16,-0.41 -1.01,-0.27 -1.95,-0.67 -2.82,-1.17 -0.87,-0.51 -1.66,-1.12 -2.37,-1.83 -0.71,-0.71 -1.32,-1.5 -1.83,-2.37 -0.51,-0.87 -0.9,-1.81 -1.18,-2.82 -0.29,-1.01 -0.43,-2.07 -0.43,-3.17 z m 6.54,0 c 0,0.79 0.12,1.53 0.37,2.21 0.25,0.68 0.59,1.28 1.04,1.78 0.45,0.5 0.99,0.9 1.63,1.19 0.64,0.29 1.36,0.44 2.16,0.44 0.78,0 1.48,-0.15 2.11,-0.44 0.63,-0.29 1.16,-0.69 1.59,-1.19 0.44,-0.5 0.77,-1.1 1,-1.78 0.23,-0.69 0.35,-1.42 0.35,-2.21 0,-0.76 -0.12,-1.49 -0.35,-2.19 -0.23,-0.69 -0.57,-1.3 -1,-1.83 -0.44,-0.52 -0.97,-0.94 -1.59,-1.24 -0.63,-0.3 -1.33,-0.46 -2.11,-0.46 -0.8,0 -1.52,0.15 -2.16,0.46 -0.64,0.3 -1.18,0.72 -1.63,1.24 -0.45,0.53 -0.79,1.13 -1.04,1.83 -0.25,0.7 -0.37,1.43 -0.37,2.19 z"
         fill="#ffffff"
         id="path195" />
      <path
         d="m 172.94,32.3401 c 0.04,0.2 0.06,0.48 0.08,0.82 0.02,0.34 0.07,0.66 0.15,0.96 0.3,1.06 0.74,2.04 1.32,2.92 0.58,0.88 1.27,1.64 2.07,2.28 0.8,0.64 1.69,1.13 2.68,1.49 0.99,0.36 2.03,0.54 3.13,0.54 0.63,0 1.22,-0.05 1.77,-0.14 0.55,-0.1 1.06,-0.23 1.53,-0.4 0.47,-0.17 0.92,-0.38 1.34,-0.62 0.42,-0.24 0.83,-0.5 1.21,-0.79 0.12,-0.07 0.24,-0.16 0.37,-0.26 0.13,-0.1 0.25,-0.2 0.37,-0.29 0.12,-0.09 0.23,-0.17 0.33,-0.23 0.1,-0.07 0.19,-0.1 0.28,-0.1 0.09,0 0.2,0.08 0.32,0.23 0.2,0.29 0.35,0.51 0.44,0.66 0.09,0.16 0.13,0.28 0.13,0.36 0,0.05 -0.02,0.1 -0.07,0.14 0.06,0.06 0.09,0.12 0.09,0.18 -0.13,0.17 -0.29,0.34 -0.48,0.52 -0.19,0.18 -0.42,0.36 -0.68,0.54 -0.97,0.68 -2.01,1.22 -3.14,1.61 -1.12,0.39 -2.34,0.59 -3.67,0.59 -1.61,0 -3.13,-0.31 -4.56,-0.92 -1.43,-0.61 -2.68,-1.46 -3.75,-2.53 -1.07,-1.07 -1.92,-2.31 -2.54,-3.74 -0.63,-1.42 -0.94,-2.94 -0.94,-4.55 0,-1.09 0.14,-2.13 0.41,-3.14 0.27,-1 0.66,-1.94 1.17,-2.81 0.5,-0.87 1.11,-1.67 1.82,-2.38 0.71,-0.72 1.5,-1.33 2.38,-1.84 0.88,-0.51 1.82,-0.91 2.83,-1.19 1.01,-0.28 2.07,-0.42 3.18,-0.42 1.04,0 2.04,0.13 3.02,0.38 0.97,0.25 1.89,0.61 2.75,1.09 0.86,0.48 1.64,1.06 2.35,1.76 0.71,0.69 1.32,1.48 1.84,2.35 0.51,0.87 0.92,1.83 1.22,2.88 0.3,1.05 0.47,2.17 0.5,3.37 v -0.02 c 0,0.01 0,0.03 0.01,0.04 0,0.02 0.01,0.04 0.01,0.06 0,0.41 -0.19,0.61 -0.57,0.61 h -20.7 z m 7.03,-10.12 c -0.91,0.24 -1.76,0.61 -2.54,1.13 -0.79,0.51 -1.49,1.12 -2.1,1.83 -0.61,0.71 -1.12,1.49 -1.53,2.35 -0.41,0.86 -0.7,1.76 -0.85,2.71 h 19.17 c -0.14,-1.19 -0.5,-2.3 -1.06,-3.32 -0.57,-1.02 -1.28,-1.91 -2.14,-2.65 -0.86,-0.75 -1.84,-1.33 -2.93,-1.76 -1.1,-0.42 -2.24,-0.64 -3.43,-0.64 -0.41,0 -0.8,0.02 -1.18,0.06 -0.38,0.04 -0.87,0.13 -1.41,0.29 z"
         fill="#ffffff"
         id="path197" />
      <path
         d="m 197.13,42.6 v -0.02 c -0.08,0.1 -0.16,0.17 -0.23,0.22 -0.07,0.05 -0.16,0.08 -0.25,0.08 h -1.33 c -0.05,0.02 -0.08,0.04 -0.09,0.04 -0.01,0 -0.05,-0.01 -0.13,-0.02 -0.07,-0.01 -0.15,-0.03 -0.22,-0.05 -0.08,-0.02 -0.15,-0.06 -0.21,-0.1 -0.06,-0.04 -0.09,-0.09 -0.09,-0.15 0,-0.1 0.05,-0.22 0.14,-0.38 l 7.51,-10.93 c -1.04,-1.54 -2.03,-3 -2.98,-4.39 -0.95,-1.39 -1.87,-2.72 -2.75,-4 l -1.34,-1.95 h 0.02 c -0.1,-0.15 -0.14,-0.28 -0.14,-0.38 0,-0.12 0.09,-0.21 0.26,-0.27 0.17,-0.06 0.35,-0.09 0.53,-0.09 H 197 c 0.13,0 0.23,0.03 0.3,0.08 0.06,0.05 0.15,0.15 0.26,0.28 l 5.93,9.05 c 1.01,-1.49 2.02,-2.98 3,-4.46 0.99,-1.48 1.99,-2.97 3,-4.46 0.19,-0.24 0.42,-0.38 0.69,-0.42 0.27,-0.04 0.53,-0.06 0.78,-0.06 0.24,0 0.46,0.01 0.67,0.04 0.21,0.03 0.33,0.11 0.35,0.24 0,0.11 -0.05,0.26 -0.16,0.45 l -1.34,1.95 c -0.45,0.66 -0.91,1.31 -1.35,1.97 -0.45,0.66 -0.91,1.33 -1.38,2.02 -0.47,0.69 -0.96,1.39 -1.45,2.11 -0.5,0.72 -1.01,1.48 -1.55,2.28 1.24,1.82 2.49,3.64 3.75,5.46 1.26,1.83 2.51,3.65 3.75,5.46 l 0.05,0.11 c 0.05,0.1 0.07,0.19 0.07,0.29 -0.02,0.1 -0.1,0.17 -0.23,0.22 -0.13,0.05 -0.25,0.08 -0.36,0.08 -0.03,0 -0.07,-0.01 -0.09,-0.04 h -1.34 c -0.16,0 -0.31,-0.1 -0.47,-0.29 l -6.4,-9.69 z"
         fill="#ffffff"
         id="path199" />
      <path
         d="m 213.9,20.8501 c 0,-0.38 0.19,-0.57 0.57,-0.57 h 1 c 0.38,0 0.57,0.19 0.57,0.57 v 4.34 c 0.24,-0.39 0.5,-0.79 0.77,-1.2 0.27,-0.41 0.57,-0.75 0.88,-1.04 1.06,-1 2.26,-1.77 3.59,-2.31 1.33,-0.54 2.74,-0.81 4.24,-0.81 1.08,0 2.11,0.14 3.11,0.42 1,0.28 1.93,0.68 2.8,1.19 0.87,0.51 1.67,1.13 2.38,1.85 0.72,0.72 1.33,1.51 1.85,2.37 0.51,0.87 0.91,1.8 1.19,2.8 0.28,1 0.42,2.04 0.42,3.12 0,1.08 -0.14,2.11 -0.42,3.12 -0.28,1 -0.68,1.94 -1.19,2.81 -0.51,0.87 -1.13,1.67 -1.85,2.38 -0.72,0.72 -1.51,1.33 -2.38,1.84 -0.87,0.51 -1.81,0.91 -2.8,1.19 -1,0.28 -2.03,0.42 -3.11,0.42 -0.75,0 -1.49,-0.08 -2.2,-0.23 -0.72,-0.15 -1.41,-0.37 -2.08,-0.65 -0.67,-0.28 -1.31,-0.62 -1.91,-1.01 -0.6,-0.39 -1.16,-0.83 -1.67,-1.31 -0.32,-0.34 -0.6,-0.67 -0.84,-1.01 -0.24,-0.34 -0.52,-0.73 -0.84,-1.17 v 11.52 c 0,0.08 -0.03,0.15 -0.09,0.21 -0.06,0.06 -0.14,0.09 -0.23,0.09 l -1.27,0.02 c -0.32,0 -0.48,-0.16 -0.48,-0.48 v -28.47 z m 21.17,10.74 c 0,-1.3 -0.25,-2.54 -0.74,-3.73 -0.5,-1.18 -1.17,-2.22 -2.03,-3.11 -0.86,-0.89 -1.87,-1.6 -3.02,-2.12 -1.15,-0.53 -2.39,-0.79 -3.7,-0.79 -1.33,0 -2.58,0.25 -3.76,0.76 -1.18,0.51 -2.22,1.2 -3.11,2.08 -0.89,0.88 -1.59,1.91 -2.1,3.09 -0.51,1.18 -0.77,2.44 -0.77,3.78 0,1.31 0.25,2.56 0.75,3.75 0.5,1.19 1.19,2.23 2.06,3.13 0.87,0.9 1.89,1.61 3.06,2.14 1.17,0.53 2.42,0.8 3.74,0.8 1.33,0 2.57,-0.26 3.75,-0.78 1.17,-0.52 2.19,-1.23 3.05,-2.12 0.87,-0.9 1.55,-1.93 2.06,-3.12 0.51,-1.19 0.76,-2.44 0.76,-3.76 z"
         fill="#ffffff"
         id="path201" />
      <path
         d="m 239.77,13.9199 c 0,-0.37 0.19,-0.56 0.57,-0.56 h 0.93 c 0.39,0 0.59,0.19 0.59,0.56 v 28.41 c 0,0.37 -0.19,0.56 -0.57,0.56 h -0.93 c -0.39,0 -0.59,-0.19 -0.59,-0.56 z"
         fill="#ffffff"
         id="path203" />
      <path
         d="m 244.37,31.5901 c 0,-1.08 0.14,-2.11 0.42,-3.12 0.28,-1 0.68,-1.94 1.19,-2.81 0.51,-0.87 1.13,-1.67 1.84,-2.38 0.72,-0.72 1.51,-1.33 2.38,-1.84 0.87,-0.51 1.81,-0.91 2.8,-1.19 1,-0.28 2.03,-0.42 3.11,-0.42 1.08,0 2.11,0.14 3.11,0.42 1,0.28 1.93,0.68 2.8,1.19 0.87,0.51 1.67,1.13 2.39,1.84 0.72,0.72 1.34,1.51 1.85,2.38 0.51,0.87 0.91,1.81 1.19,2.81 0.28,1 0.42,2.04 0.42,3.12 0,1.08 -0.14,2.11 -0.42,3.12 -0.28,1 -0.68,1.94 -1.19,2.81 -0.51,0.87 -1.13,1.67 -1.85,2.38 -0.72,0.72 -1.52,1.33 -2.39,1.84 -0.87,0.51 -1.81,0.91 -2.8,1.19 -1,0.28 -2.03,0.42 -3.11,0.42 -1.07,0 -2.11,-0.14 -3.11,-0.42 -1,-0.28 -1.93,-0.68 -2.8,-1.19 -0.87,-0.51 -1.67,-1.13 -2.38,-1.84 -0.72,-0.72 -1.33,-1.51 -1.84,-2.38 -0.51,-0.87 -0.91,-1.81 -1.19,-2.81 -0.28,-1.01 -0.42,-2.05 -0.42,-3.12 z m 2.15,-0.01 c 0,0.87 0.11,1.72 0.34,2.53 0.23,0.82 0.55,1.59 0.96,2.31 0.41,0.72 0.91,1.38 1.49,1.99 0.58,0.61 1.22,1.12 1.94,1.55 0.72,0.43 1.47,0.76 2.28,1 0.8,0.24 1.65,0.36 2.53,0.36 1.33,0 2.58,-0.25 3.75,-0.76 1.18,-0.51 2.21,-1.2 3.09,-2.08 0.88,-0.88 1.58,-1.9 2.1,-3.08 0.51,-1.18 0.77,-2.44 0.77,-3.79 0,-1.31 -0.25,-2.56 -0.75,-3.75 -0.5,-1.19 -1.18,-2.23 -2.05,-3.12 -0.87,-0.89 -1.88,-1.61 -3.05,-2.14 -1.16,-0.53 -2.41,-0.8 -3.74,-0.8 -1.33,0 -2.58,0.26 -3.75,0.78 -1.18,0.52 -2.2,1.23 -3.07,2.12 -0.87,0.89 -1.56,1.93 -2.07,3.11 -0.51,1.19 -0.77,2.44 -0.77,3.77 z"
         fill="#ffffff"
         id="path205" />
      <path
         d="m 284.16,23.9401 c -0.06,0.06 -0.12,0.09 -0.2,0.09 -0.08,0 -0.18,-0.02 -0.3,-0.07 -0.11,-0.05 -0.26,-0.14 -0.44,-0.27 -0.25,-0.18 -0.55,-0.36 -0.89,-0.55 -0.34,-0.19 -0.7,-0.36 -1.07,-0.52 -0.38,-0.16 -0.76,-0.29 -1.15,-0.39 -0.39,-0.1 -0.77,-0.15 -1.14,-0.15 -0.92,0 -1.79,0.16 -2.6,0.48 -0.81,0.32 -1.52,0.78 -2.13,1.37 -0.61,0.59 -1.09,1.31 -1.44,2.17 -0.35,0.85 -0.53,1.81 -0.53,2.86 v 13.38 c 0,0.37 -0.19,0.56 -0.57,0.56 h -0.95 c -0.39,0 -0.59,-0.19 -0.59,-0.56 v -21.52 c 0,-0.32 0.17,-0.48 0.5,-0.48 0.04,0 0.06,0.01 0.09,0.02 0.02,-0.01 0.06,-0.02 0.12,-0.02 h 0.73 c 0.22,0 0.38,0.06 0.49,0.19 0.11,0.13 0.17,0.28 0.17,0.47 v 2.92 c 0.25,-0.47 0.58,-0.93 0.99,-1.38 0.41,-0.45 0.89,-0.86 1.43,-1.23 0.55,-0.36 1.16,-0.66 1.84,-0.89 0.68,-0.23 1.4,-0.34 2.18,-0.34 0.62,0 1.2,0.04 1.73,0.13 0.53,0.08 1.04,0.21 1.51,0.38 0.48,0.17 0.94,0.38 1.38,0.64 0.44,0.26 0.88,0.56 1.33,0.91 0.12,0.1 0.23,0.2 0.32,0.3 0.1,0.11 0.14,0.23 0.14,0.38 0,0.11 -0.1,0.27 -0.3,0.49 -0.19,0.21 -0.41,0.42 -0.65,0.63 z"
         fill="#ffffff"
         id="path207" />
      <path
         d="m 287.85,32.3401 c 0.04,0.2 0.06,0.48 0.08,0.82 0.02,0.34 0.07,0.66 0.15,0.96 0.3,1.06 0.74,2.04 1.32,2.92 0.58,0.88 1.27,1.64 2.07,2.28 0.8,0.63 1.69,1.13 2.68,1.49 0.99,0.36 2.03,0.54 3.13,0.54 0.63,0 1.22,-0.05 1.77,-0.14 0.55,-0.1 1.06,-0.23 1.53,-0.4 0.47,-0.17 0.92,-0.38 1.34,-0.62 0.42,-0.24 0.83,-0.5 1.21,-0.79 0.12,-0.07 0.24,-0.16 0.37,-0.26 0.12,-0.1 0.25,-0.2 0.37,-0.29 0.12,-0.09 0.23,-0.17 0.33,-0.23 0.1,-0.07 0.19,-0.1 0.28,-0.1 0.09,0 0.2,0.08 0.32,0.23 0.2,0.29 0.35,0.51 0.44,0.66 0.09,0.16 0.13,0.28 0.13,0.36 0,0.05 -0.02,0.1 -0.07,0.14 0.06,0.06 0.09,0.12 0.09,0.18 -0.13,0.17 -0.29,0.34 -0.48,0.52 -0.19,0.18 -0.42,0.36 -0.68,0.54 -0.97,0.68 -2.01,1.22 -3.14,1.61 -1.12,0.39 -2.35,0.59 -3.67,0.59 -1.61,0 -3.13,-0.31 -4.56,-0.92 -1.43,-0.61 -2.68,-1.46 -3.74,-2.53 -1.07,-1.07 -1.92,-2.31 -2.54,-3.74 -0.63,-1.42 -0.94,-2.94 -0.94,-4.55 0,-1.09 0.14,-2.13 0.41,-3.14 0.27,-1 0.66,-1.94 1.16,-2.81 0.5,-0.87 1.11,-1.67 1.82,-2.38 0.71,-0.72 1.5,-1.33 2.38,-1.84 0.88,-0.51 1.82,-0.91 2.83,-1.19 1.01,-0.28 2.07,-0.42 3.18,-0.42 1.04,0 2.05,0.13 3.02,0.38 0.97,0.25 1.89,0.61 2.75,1.09 0.86,0.48 1.64,1.06 2.35,1.76 0.71,0.69 1.32,1.48 1.84,2.35 0.51,0.87 0.92,1.83 1.22,2.88 0.3,1.05 0.47,2.17 0.5,3.37 v -0.02 c 0,0.01 0,0.03 0.01,0.04 0.01,0.02 0.01,0.04 0.01,0.06 0,0.41 -0.19,0.61 -0.57,0.61 h -20.7 z m 7.03,-10.12 c -0.91,0.24 -1.75,0.61 -2.54,1.13 -0.79,0.51 -1.49,1.12 -2.1,1.83 -0.61,0.71 -1.12,1.49 -1.53,2.35 -0.41,0.86 -0.69,1.76 -0.85,2.71 h 19.17 c -0.14,-1.19 -0.5,-2.3 -1.07,-3.32 -0.57,-1.02 -1.28,-1.91 -2.14,-2.65 -0.86,-0.75 -1.84,-1.33 -2.93,-1.76 -1.09,-0.42 -2.24,-0.64 -3.43,-0.64 -0.41,0 -0.8,0.02 -1.18,0.06 -0.39,0.03 -0.85,0.13 -1.4,0.29 z"
         fill="#ffffff"
         id="path209" />
      <path
         d="m 13.5097,26.4799 c 1.97,-1 4.07,-2.08 6.32,-3.18 -2.93,-1.24 -8.31,-3.18 -16.05003,-4.63 -0.67,1.53 -1.21,3.12 -1.62,4.77 5.54,1.33 9.33003,2.75 10.77003,3.33 0.2,-0.09 0.38,-0.19 0.58,-0.29 z"
         fill="#ffffff"
         id="path211" />
      <path
         d="m 27.8399,19.58 c -4.12,-1.72 -11.43,-4.43 -20.80002,-6.54 -0.7,0.94 -1.33,1.92 -1.91,2.94 10.08002,1.96 16.10002,4.72 18.04002,5.71 1.49,-0.7 3.05,-1.4 4.67,-2.11 z"
         fill="#ffffff"
         id="path213" />
      <path
         d="m 56.4297,17.1103 c -0.58,-1.14 -1.24,-2.23 -1.96,-3.27 -8.86,2.02 -16.36,4.58 -22.8,7.23 l -0.1,0.19 c -0.01,-0.01 -0.07,-0.03 -0.17,-0.08 -6.52,2.69 -11.94,5.46 -16.6,7.84 -4.24,2.17 -7.91003,4.04 -11.07003,5.13 -0.68,0.23 -1.37,0.45 -2.07,0.66 0.17,1.13 0.42,2.24 0.71,3.32 3.6,-0.93 6.97,-2.1 9.67003,-3.59 15.05,-8.34 29.89,-14.15 44.39,-17.43 z"
         fill="#ffffff"
         id="path215" />
      <path
         d="m 22.88,58.53 c 10.6,-5.04 21.09,-8.82 31.4,-11.32 1.14,-1.61 2.12,-3.34 2.92,-5.17 -12.81,2.88 -25.91,7.79 -39.2,14.69 1.56,0.74 3.19,1.35 4.88,1.8 z"
         fill="#ffffff"
         id="path217" />
      <path
         d="m 30.4,59.5402 c 8.1,0.02 15.44,-3.27 20.74,-8.59 -7.71,2.1 -15.51,4.92 -23.39,8.46 0.87,0.08 1.76,0.13 2.65,0.13 z"
         fill="#ffffff"
         id="path219" />
      <path
         d="m 52.5598,11.3502 c -5.33,-6.18003 -13.2,-10.10003 -22,-10.12003 -8.5,-0.03 -16.15,3.59 -21.48998,9.37003 11.17998,2.65 19.30998,6.06 22.40998,7.46 6.04,-2.44 12.99,-4.79 21.08,-6.71 z"
         fill="#ffffff"
         id="path221" />
      <path
         d="m 9.45982,28.53 c -1.85,-0.64 -4.52,-1.46 -7.84,-2.26 -0.19,1.32 -0.29,2.67 -0.3,4.04 0,0.12 0.01,0.24 0.01,0.37 0.89,0.25 1.53,0.46 1.94,0.61 1.84,-0.68 3.91,-1.63 6.19,-2.76 z"
         fill="#ffffff"
         id="path223" />
      <path
         d="m 11.6997,52.6799 c 1.05,0.88 2.15,1.69 3.32,2.42 14.7,-7.82 29.19,-13.24 43.36,-16.22 0.46,-1.52 0.8,-3.09 1.01,-4.71 -14.99,3.11 -30.37,9 -46.01,17.65 -0.54,0.3 -1.1,0.58 -1.68,0.86 z"
         fill="#ffffff"
         id="path225" />
      <path
         d="m 6.68994,47.23 c 0.84,1.18 1.76,2.3 2.76,3.34 0.89996,-0.39 1.74996,-0.8 2.53996,-1.23 16.17,-8.94 32.09,-14.99 47.61,-18.11 0.01,-0.26 0.02,-0.51 0.02,-0.77 0,-1.25 -0.08,-2.48 -0.23,-3.69 -14.99,3.11 -30.37,9 -46.01,17.65 -1.96,1.09 -4.23996,2.02 -6.68996,2.81 z"
         fill="#ffffff"
         id="path227" />
      <path
         d="m 13.4098,37.0102 c -2.87,1.6 -6.41003,2.84 -10.15003,3.82 0.52,1.36 1.14,2.66 1.85,3.91 2.55,-0.78 4.91003,-1.71 6.91003,-2.82 15.92,-8.8 31.6,-14.8 46.9,-17.96 -0.33,-1.45 -0.76,-2.86 -1.29,-4.22 -14.42,3.21 -29.21,8.97 -44.22,17.27 z"
         fill="#ffffff"
         id="path229" />
      <path
         d="M 30.38,60.76 C 13.63,60.76 0,47.14 0,30.38 0,13.63 13.63,0 30.38,0 c 16.75,0 30.38,13.63 30.38,30.38 0,16.76 -13.62,30.38 -30.38,30.38 z m 0,-58.31 c -15.4,0 -27.93,12.53 -27.93,27.93 0,15.4 12.53,27.93 27.93,27.93 15.4,0 27.93,-12.53 27.93,-27.93 0,-15.4 -12.53,-27.93 -27.93,-27.93 z"
         fill="#ffffff"
         id="path231" />
    </g>
    <g
       inkscape:export-ydpi="96"
       inkscape:export-xdpi="96"
       transform="matrix(13.090854,0,0,13.090854,-436.28195,-1554.7845)"
       id="g46"
       inkscape:export-filename="D:\agrox\src\agro-x\frontend\assets\embraer_logo.png">
      <g
         style="fill:none"
         id="g21"
         transform="matrix(0.26458333,0,0,0.26458333,1.3985133,154.63007)">
        <path
           id="path10"
           fill="#327387"
           d="M 202.744,14.3547 V 9.58222 H 182.106 V 29.1195 h 20.638 v -4.6979 h -15.13 v -2.9828 h 13.771 V 17.3375 H 187.614 V 14.3547 Z M 3.08467,17.934 0,21.066 H 7.67495 L 30.7365,39 h 7.675 L 23.0616,21.066 H 38.3748 V 17.934 H 23.0616 L 38.4482,0 H 30.7365 L 7.67495,17.934 Z M 53.5411,14.3547 v 2.9455 h 13.7708 v 4.1013 H 53.5411 v 2.9828 h 15.1295 v 4.7352 H 48.0327 V 9.58222 H 68.6339 V 14.3547 Z M 71.4248,29.1568 V 9.6195 h 9.254 L 87.1419,21.8117 93.605,9.6195 h 9.401 V 29.1568 H 97.4976 V 15.2495 H 97.2773 L 89.8594,29.1568 H 84.4245 L 77.0433,15.2122 h -0.1469 v 13.9073 h -5.4716 z m 34.3722,0 V 9.6195 h 16.231 c 4.04,0 5.986,1.7897 5.986,5.4436 0,2.0879 -0.845,3.3929 -2.644,4.1386 2.277,0.4102 3.268,1.8643 3.268,4.6606 0,3.7658 -1.799,5.2945 -5.765,5.2945 z m 16.562,-13.5717 c 0,-0.9694 -0.588,-1.6033 -1.433,-1.6033 h -9.658 v 3.2438 h 9.658 c 0.918,0 1.433,-0.5965 1.433,-1.6405 z m 0.587,7.3078 c 0,-1.044 -0.587,-1.7151 -1.505,-1.7151 h -10.136 v 3.5048 h 10.136 c 0.954,0.0373 1.505,-0.6338 1.505,-1.7897 z m 48.877,-1.7151 -3.672,-6.8977 -3.599,6.8977 z m -17.663,7.979 10.392,-19.5373 h 7.382 l 10.208,19.5373 h -6.389 l -1.836,-3.2438 h -11.568 l -1.836,3.2438 z m 56.773,-14.6903 v 4.7725 h 10.465 c 1.543,0 1.984,-0.7084 1.984,-2.5726 0,-1.4914 -0.588,-2.1999 -1.984,-2.1999 z M 229,15.9952 c 0,3.2438 -0.734,4.8471 -2.974,5.4436 1.872,0.4847 2.827,1.7151 2.827,3.7285 v 3.9895 h -5.508 V 26.174 c 0,-1.6778 -0.661,-2.0134 -2.461,-2.0134 h -9.915 v 4.9962 h -5.508 V 9.6195 h 16.195 c 5.398,0 7.344,1.305 7.344,6.3757 z m -92.76,-1.5287 v 4.7725 h 10.465 c 1.543,0 1.983,-0.7084 1.983,-2.5726 0,-1.4914 -0.55,-2.1999 -1.983,-2.1999 z m 18.067,1.5287 c 0,3.2438 -0.735,4.8471 -2.975,5.4436 1.873,0.4847 2.828,1.7151 2.828,3.7285 v 3.9895 h -5.508 V 26.174 c 0,-1.6778 -0.661,-2.0134 -2.461,-2.0134 h -9.915 v 4.9962 h -5.508 V 9.6195 h 16.194 c 5.399,0 7.345,1.305 7.345,6.3757 z" />
      </g>
      <g
         style="fill:none"
         id="g34"
         transform="matrix(0.26458333,0,0,0.26458333,64.12964,152.59716)">
        <path
           id="path23"
           fill="#327387"
           d="M 9.81445,15 8.76953,12.0996 H 3.86719 L 2.87109,15 H 0.0488281 L 5.75195,0.498047 H 6.86523 L 12.6172,15 Z M 6.30859,4.87305 4.58984,10.1562 h 3.4375 z M 24.707,1.85547 23.6426,3.89648 C 23.3431,3.62956 22.8809,3.36589 22.2559,3.10547 21.6309,2.83854 21.0938,2.70508 20.6445,2.70508 c -1.4062,0 -2.5162,0.47851 -3.33,1.43554 -0.8138,0.95053 -1.2207,2.22657 -1.2207,3.82813 0,1.52344 0.3971,2.74085 1.1914,3.65235 0.8007,0.9115 1.888,1.3672 3.2617,1.3672 0.9049,0 1.6504,-0.2474 2.2363,-0.7422 V 9.43359 H 20.8008 V 7.26562 h 4.5215 v 6.40628 c -0.6055,0.4948 -1.3868,0.8821 -2.3438,1.1621 -0.9505,0.2734 -1.8978,0.4101 -2.8418,0.4101 -2.0508,0 -3.6784,-0.6705 -4.8828,-2.0117 -1.1979,-1.3476 -1.7969,-3.125 -1.7969,-5.33201 0,-2.20703 0.6543,-4.00065 1.9629,-5.38086 1.3086,-1.38021 3.0697,-2.070311 5.2832,-2.070311 1.569,0 2.9037,0.46875 4.0039,1.406251 z M 35.6445,15 31.8262,9.0918 C 31.4421,9.08529 30.9049,9.0625 30.2148,9.02344 V 15 H 27.5781 V 0.693359 c 0.1433,0 0.6934,-0.022786 1.6504,-0.068359 0.957,-0.052083 1.7285,-0.078125 2.3145,-0.078125 3.6328,0 5.4492,1.406245 5.4492,4.218745 0,0.84636 -0.2507,1.61784 -0.752,2.31446 -0.5013,0.69661 -1.1328,1.18815 -1.8945,1.47461 L 38.5742,15 Z M 30.2148,2.90039 V 6.875 c 0.4688,0.03906 0.8269,0.05859 1.0743,0.05859 1.0612,0 1.8359,-0.14974 2.3242,-0.44921 0.4948,-0.29948 0.7422,-0.88217 0.7422,-1.74805 0,-0.70313 -0.2637,-1.19466 -0.791,-1.47461 C 33.0371,2.98177 32.207,2.8418 31.0742,2.8418 c -0.2734,0 -0.5599,0.01953 -0.8594,0.05859 z m 8.9063,4.82422 c 0,-2.03776 0.5566,-3.75977 1.6699,-5.16602 1.1198,-1.41276 2.6139,-2.119137 4.4824,-2.119137 2.0573,0 3.6296,0.638017 4.7168,1.914067 1.0873,1.27604 1.6309,3.0664 1.6309,5.37109 0,2.30469 -0.5697,4.13409 -1.709,5.48829 -1.1328,1.3542 -2.7441,2.0312 -4.834,2.0312 -1.9205,0 -3.3952,-0.6705 -4.4238,-2.0117 -1.0221,-1.3411 -1.5332,-3.1771 -1.5332,-5.50779 z m 2.6367,0 c 0,1.67318 0.2832,2.96879 0.8496,3.88669 0.5664,0.918 1.39,1.377 2.4707,1.377 1.2696,0 2.2364,-0.4492 2.9004,-1.3477 0.6706,-0.8984 1.0059,-2.20375 1.0059,-3.91599 0,-3.35287 -1.237,-5.0293 -3.711,-5.0293 -1.1328,0 -2.0019,0.45573 -2.6074,1.36719 -0.6055,0.90495 -0.9082,2.12565 -0.9082,3.66211 z" />
      </g>
    </g>
  </g>
</svg>
