<?xml version="1.0" encoding="UTF-8" standalone="no"?>
<svg
   xmlns:dc="http://purl.org/dc/elements/1.1/"
   xmlns:cc="http://creativecommons.org/ns#"
   xmlns:rdf="http://www.w3.org/1999/02/22-rdf-syntax-ns#"
   xmlns:svg="http://www.w3.org/2000/svg"
   xmlns="http://www.w3.org/2000/svg"
   xmlns:sodipodi="http://sodipodi.sourceforge.net/DTD/sodipodi-0.dtd"
   xmlns:inkscape="http://www.inkscape.org/namespaces/inkscape"
   width="210mm"
   height="297mm"
   viewBox="0 0 210 297"
   version="1.1"
   id="svg8"
   inkscape:version="1.0 (4035a4fb49, 2020-05-01)"
   sodipodi:docname="mapPins.svg">
  <defs
     id="defs841" />
  <sodipodi:namedview
     id="base"
     pagecolor="#ffffff"
     bordercolor="#666666"
     borderopacity="1.0"
     inkscape:pageopacity="0.0"
     inkscape:pageshadow="2"
     inkscape:zoom="0.7512564"
     inkscape:cx="133.28315"
     inkscape:cy="480.31086"
     inkscape:document-units="mm"
     inkscape:current-layer="layer1"
     inkscape:document-rotation="0"
     showgrid="false"
     inkscape:window-width="1920"
     inkscape:window-height="1137"
     inkscape:window-x="1912"
     inkscape:window-y="-8"
     inkscape:window-maximized="1" />
  <metadata
     id="metadata5">
    <rdf:RDF>
      <cc:Work
         rdf:about="">
        <dc:format>image/svg+xml</dc:format>
        <dc:type
           rdf:resource="http://purl.org/dc/dcmitype/StillImage" />
        <dc:title />
      </cc:Work>
    </rdf:RDF>
  </metadata>
  <g
     inkscape:label="Layer 1"
     inkscape:groupmode="layer"
     id="layer1">
    <path
       inkscape:export-ydpi="25.4"
       inkscape:export-xdpi="25.4"
       style="opacity:0.999;fill:#46f1fe;fill-opacity:1;stroke:#32cad7;stroke-width:3;stroke-linecap:square;stroke-linejoin:round;stroke-miterlimit:4;stroke-dasharray:none;stroke-opacity:1;paint-order:normal"
       d="m 27.135626,166.58338 c -0.03501,-0.18576 -0.306458,-1.05973 -0.603063,-1.94216 -1.313589,-3.90802 -2.724345,-6.62766 -6.214728,-11.98066 -3.412066,-5.23292 -4.453173,-7.27125 -4.809616,-9.41648 -0.160889,-0.9684 -0.112842,-3.19096 0.08782,-4.05987 0.91606,-3.96799 3.733501,-7.13222 7.514765,-8.43977 1.248293,-0.43166 2.189774,-0.60576 3.546494,-0.65582 4.213279,-0.15545 7.884347,1.59088 10.242998,4.87261 1.514372,2.10707 2.217252,4.43147 2.106792,6.96712 -0.084,1.92969 -0.33471,2.77582 -1.51313,5.10832 -0.992953,1.96539 -1.207771,2.32912 -2.945921,4.9881 -2.643463,4.0439 -3.504858,5.49364 -4.68698,7.88824 -1.028539,2.08352 -1.864828,4.24119 -2.503529,6.45928 l -0.158028,0.54883 z"
       id="path92-1" />
    <path
       id="path92-1-5"
       d="m 66.037521,166.58338 c -0.03501,-0.18576 -0.306457,-1.05973 -0.603062,-1.94216 -1.31359,-3.90802 -2.724346,-6.62767 -6.214729,-11.98066 -3.412066,-5.23291 -4.453173,-7.27125 -4.809616,-9.41648 -0.160889,-0.9684 -0.112842,-3.19096 0.08782,-4.05987 0.91606,-3.96799 3.733501,-7.13222 7.514765,-8.43977 1.248293,-0.43166 2.189775,-0.60576 3.546494,-0.65582 4.21328,-0.15545 7.884347,1.59088 10.242999,4.87261 1.514372,2.10707 2.217252,4.43147 2.106792,6.96712 -0.084,1.92969 -0.33471,2.77582 -1.51313,5.10832 -0.992953,1.96539 -1.207771,2.32912 -2.945921,4.9881 -2.643463,4.0439 -3.504858,5.49364 -4.68698,7.88824 -1.02854,2.08352 -1.864828,4.24119 -2.503529,6.45928 l -0.158028,0.54883 z"
       style="fill:#46ffb2;fill-opacity:1;stroke:#34d794;stroke-width:3;stroke-linecap:square;stroke-linejoin:round;stroke-miterlimit:4;stroke-dasharray:none;stroke-opacity:1;paint-order:normal"
       inkscape:export-xdpi="25.4"
       inkscape:export-ydpi="25.4" />
    <path
       inkscape:export-ydpi="25.4"
       inkscape:export-xdpi="25.4"
       style="opacity:0.999;fill:#efc442;fill-opacity:1;stroke:#d7af33;stroke-width:3;stroke-linecap:square;stroke-linejoin:round;stroke-miterlimit:4;stroke-dasharray:none;stroke-opacity:1;paint-order:normal"
       d="m 104.93942,166.58338 c -0.035,-0.18576 -0.30646,-1.05973 -0.60306,-1.94216 -1.31359,-3.90802 -2.72435,-6.62766 -6.214726,-11.98066 -3.41207,-5.23291 -4.45318,-7.27125 -4.80962,-9.41648 -0.16089,-0.96839 -0.11284,-3.19096 0.0878,-4.05987 0.91606,-3.96799 3.7335,-7.13222 7.514766,-8.43977 1.24829,-0.43165 2.18977,-0.60576 3.54649,-0.65581 4.21328,-0.15546 7.88435,1.59087 10.243,4.8726 1.51437,2.10708 2.21725,4.43147 2.10679,6.96712 -0.084,1.92969 -0.33471,2.77582 -1.51313,5.10832 -0.99295,1.96539 -1.20777,2.32912 -2.94592,4.9881 -2.64346,4.0439 -3.50486,5.49364 -4.68698,7.88824 -1.02854,2.08353 -1.86483,4.24119 -2.50353,6.45928 l -0.15803,0.54883 z"
       id="path92-1-5-7" />
    <path
       id="path92-1-5-7-9"
       d="m 143.84132,166.58338 c -0.035,-0.18576 -0.30646,-1.05973 -0.60306,-1.94216 -1.31359,-3.90802 -2.72435,-6.62767 -6.21473,-11.98066 -3.41207,-5.23291 -4.45318,-7.27125 -4.80962,-9.41648 -0.16089,-0.96839 -0.11284,-3.19096 0.0878,-4.05987 0.91606,-3.96799 3.7335,-7.13222 7.51477,-8.43977 1.24829,-0.43165 2.18977,-0.60576 3.54649,-0.65581 4.21328,-0.15546 7.88435,1.59087 10.243,4.8726 1.51437,2.10708 2.21725,4.43147 2.10679,6.96712 -0.084,1.92969 -0.33471,2.77582 -1.51313,5.10832 -0.99295,1.96539 -1.20777,2.32912 -2.94592,4.9881 -2.64346,4.0439 -3.50486,5.49364 -4.68698,7.88824 -1.02854,2.08353 -1.86483,4.24119 -2.50353,6.45928 l -0.15803,0.54883 z"
       style="opacity:0.999;fill:#ff5946;fill-opacity:1;stroke:#d74433;stroke-width:3;stroke-linecap:square;stroke-linejoin:round;stroke-miterlimit:4;stroke-dasharray:none;stroke-opacity:1;paint-order:normal"
       inkscape:export-xdpi="25.4"
       inkscape:export-ydpi="25.4" />
    <path
       inkscape:export-ydpi="25.4"
       inkscape:export-xdpi="25.4"
       style="opacity:0.999;fill:#e5e5e5;fill-opacity:1;stroke:#a8a8a8;stroke-width:3;stroke-linecap:square;stroke-linejoin:round;stroke-miterlimit:4;stroke-dasharray:none;stroke-opacity:1;paint-order:normal"
       d="m 182.74321,166.58338 c -0.035,-0.18575 -0.30646,-1.05972 -0.60306,-1.94215 -1.31359,-3.90802 -2.72435,-6.62767 -6.21473,-11.98067 -3.41207,-5.23291 -4.45318,-7.27125 -4.80962,-9.41648 -0.16089,-0.96839 -0.11284,-3.19096 0.0878,-4.05987 0.91606,-3.96799 3.7335,-7.13222 7.51477,-8.43977 1.24829,-0.43165 2.18977,-0.60576 3.54649,-0.65581 4.21328,-0.15546 7.88435,1.59087 10.243,4.8726 1.51437,2.10708 2.21725,4.43147 2.10679,6.96712 -0.084,1.92969 -0.33471,2.77582 -1.51313,5.10832 -0.99295,1.96539 -1.20777,2.32912 -2.94592,4.9881 -2.64346,4.04391 -3.50486,5.49364 -4.68698,7.88825 -1.02854,2.08353 -1.86483,4.24118 -2.50353,6.45927 l -0.15803,0.54883 z"
       id="path92-1-5-7-9-9"
       inkscape:export-filename="C:\Users\hjusti\Pictures\grayPin1.png" />
    <path
       inkscape:export-filename="C:\AgroX\agro-x\frontend\assets\mapPins\lightGreenPin.png"
       id="path92-1-5-7-9-9-0"
       d="m 25.340931,220.29929 c -0.035,-0.18575 -0.30646,-1.05972 -0.60306,-1.94215 -1.31359,-3.90802 -2.72435,-6.62767 -6.21473,-11.98067 -3.41207,-5.23291 -4.45318,-7.27125 -4.80962,-9.41648 -0.16089,-0.96839 -0.11284,-3.19096 0.0878,-4.05987 0.91606,-3.96799 3.7335,-7.13222 7.51477,-8.43977 1.24829,-0.43165 2.18977,-0.60576 3.54649,-0.65581 4.21328,-0.15546 7.88435,1.59087 10.243,4.8726 1.51437,2.10708 2.21725,4.43147 2.10679,6.96712 -0.084,1.92969 -0.33471,2.77582 -1.51313,5.10832 -0.99295,1.96539 -1.20777,2.32912 -2.94592,4.9881 -2.64346,4.04391 -3.50486,5.49364 -4.68698,7.88825 -1.02854,2.08353 -1.86483,4.24118 -2.50353,6.45927 l -0.15803,0.54883 z"
       style="opacity:1;fill:#efffe5;fill-opacity:1;stroke:#99d19d;stroke-width:3;stroke-linecap:square;stroke-linejoin:round;stroke-miterlimit:4;stroke-dasharray:none;stroke-opacity:1;paint-order:normal"
       inkscape:export-xdpi="100"
       inkscape:export-ydpi="100" />
  </g>
</svg>
